ISO-10303-21;
HEADER;
/* Generated by software containing ST-Developer
 * from STEP Tools, Inc. (www.steptools.com) 
 */

FILE_DESCRIPTION(
/* description */ (''),
/* implementation_level */ '2;1');

FILE_NAME(
/* name */ 'NEMA 17 Motor.step',
/* time_stamp */ '2026-03-11T18:23:50+05:30',
/* author */ (''),
/* organization */ (''),
/* preprocessor_version */ 'ST-DEVELOPER v20.1',
/* originating_system */ 'Autodesk Translation Framework v14.24.0.0',
/* authorisation */ '');

FILE_SCHEMA (('AUTOMOTIVE_DESIGN { 1 0 10303 214 3 1 1 }'));
ENDSEC;

DATA;
#10=MECHANICAL_DESIGN_GEOMETRIC_PRESENTATION_REPRESENTATION('',(#23,#24,
#25,#26),#1813);
#11=SHAPE_REPRESENTATION_RELATIONSHIP('SRR','None',#1820,#12);
#12=ADVANCED_BREP_SHAPE_REPRESENTATION('',(#13),#1812);
#13=MANIFOLD_SOLID_BREP('Body6',#1081);
#14=ELLIPSE('',#1187,3.53553390593273,2.5);
#15=ELLIPSE('',#1188,3.53553390593273,2.5);
#16=B_SPLINE_CURVE_WITH_KNOTS('',3,(#1778,#1779,#1780,#1781),
 .UNSPECIFIED.,.F.,.F.,(4,4),(0.,0.0787189608815945),.UNSPECIFIED.);
#17=B_SPLINE_CURVE_WITH_KNOTS('',3,(#1786,#1787,#1788,#1789),
 .UNSPECIFIED.,.F.,.F.,(4,4),(0.,0.0787189608815915),.UNSPECIFIED.);
#18=CONICAL_SURFACE('',#1148,0.85,1.02974425867665);
#19=CONICAL_SURFACE('',#1152,0.85,1.02974425867665);
#20=CONICAL_SURFACE('',#1156,0.85,1.02974425867665);
#21=CONICAL_SURFACE('',#1160,0.85,1.02974425867665);
#22=CONICAL_SURFACE('',#1179,2.25,0.78539816339745);
#23=STYLED_ITEM('',(#1830),#1036);
#24=STYLED_ITEM('',(#1830),#1042);
#25=STYLED_ITEM('',(#1830),#1044);
#26=STYLED_ITEM('',(#1829),#13);
#27=FACE_BOUND('',#160,.T.);
#28=FACE_BOUND('',#161,.T.);
#29=FACE_BOUND('',#162,.T.);
#30=FACE_BOUND('',#163,.T.);
#31=FACE_BOUND('',#164,.T.);
#32=FACE_BOUND('',#193,.T.);
#33=FACE_BOUND('',#195,.T.);
#34=FACE_BOUND('',#196,.T.);
#35=FACE_BOUND('',#197,.T.);
#36=FACE_BOUND('',#198,.T.);
#37=FACE_BOUND('',#199,.T.);
#38=FACE_BOUND('',#208,.T.);
#39=PLANE('',#1107);
#40=PLANE('',#1108);
#41=PLANE('',#1109);
#42=PLANE('',#1110);
#43=PLANE('',#1111);
#44=PLANE('',#1112);
#45=PLANE('',#1113);
#46=PLANE('',#1114);
#47=PLANE('',#1115);
#48=PLANE('',#1116);
#49=PLANE('',#1117);
#50=PLANE('',#1118);
#51=PLANE('',#1119);
#52=PLANE('',#1127);
#53=PLANE('',#1130);
#54=PLANE('',#1133);
#55=PLANE('',#1136);
#56=PLANE('',#1139);
#57=PLANE('',#1140);
#58=PLANE('',#1141);
#59=PLANE('',#1142);
#60=PLANE('',#1143);
#61=PLANE('',#1144);
#62=PLANE('',#1145);
#63=PLANE('',#1146);
#64=PLANE('',#1147);
#65=PLANE('',#1167);
#66=PLANE('',#1169);
#67=PLANE('',#1170);
#68=PLANE('',#1171);
#69=PLANE('',#1172);
#70=PLANE('',#1173);
#71=PLANE('',#1174);
#72=PLANE('',#1175);
#73=PLANE('',#1176);
#74=PLANE('',#1177);
#75=PLANE('',#1178);
#76=PLANE('',#1183);
#77=PLANE('',#1184);
#78=PLANE('',#1185);
#79=PLANE('',#1186);
#80=PLANE('',#1189);
#81=FACE_OUTER_BOUND('',#143,.T.);
#82=FACE_OUTER_BOUND('',#144,.T.);
#83=FACE_OUTER_BOUND('',#145,.T.);
#84=FACE_OUTER_BOUND('',#146,.T.);
#85=FACE_OUTER_BOUND('',#147,.T.);
#86=FACE_OUTER_BOUND('',#148,.T.);
#87=FACE_OUTER_BOUND('',#149,.T.);
#88=FACE_OUTER_BOUND('',#150,.T.);
#89=FACE_OUTER_BOUND('',#151,.T.);
#90=FACE_OUTER_BOUND('',#152,.T.);
#91=FACE_OUTER_BOUND('',#153,.T.);
#92=FACE_OUTER_BOUND('',#154,.T.);
#93=FACE_OUTER_BOUND('',#155,.T.);
#94=FACE_OUTER_BOUND('',#156,.T.);
#95=FACE_OUTER_BOUND('',#157,.T.);
#96=FACE_OUTER_BOUND('',#158,.T.);
#97=FACE_OUTER_BOUND('',#159,.T.);
#98=FACE_OUTER_BOUND('',#165,.T.);
#99=FACE_OUTER_BOUND('',#166,.T.);
#100=FACE_OUTER_BOUND('',#167,.T.);
#101=FACE_OUTER_BOUND('',#168,.T.);
#102=FACE_OUTER_BOUND('',#169,.T.);
#103=FACE_OUTER_BOUND('',#170,.T.);
#104=FACE_OUTER_BOUND('',#171,.T.);
#105=FACE_OUTER_BOUND('',#172,.T.);
#106=FACE_OUTER_BOUND('',#173,.T.);
#107=FACE_OUTER_BOUND('',#174,.T.);
#108=FACE_OUTER_BOUND('',#175,.T.);
#109=FACE_OUTER_BOUND('',#176,.T.);
#110=FACE_OUTER_BOUND('',#177,.T.);
#111=FACE_OUTER_BOUND('',#178,.T.);
#112=FACE_OUTER_BOUND('',#179,.T.);
#113=FACE_OUTER_BOUND('',#180,.T.);
#114=FACE_OUTER_BOUND('',#181,.T.);
#115=FACE_OUTER_BOUND('',#182,.T.);
#116=FACE_OUTER_BOUND('',#183,.T.);
#117=FACE_OUTER_BOUND('',#184,.T.);
#118=FACE_OUTER_BOUND('',#185,.T.);
#119=FACE_OUTER_BOUND('',#186,.T.);
#120=FACE_OUTER_BOUND('',#187,.T.);
#121=FACE_OUTER_BOUND('',#188,.T.);
#122=FACE_OUTER_BOUND('',#189,.T.);
#123=FACE_OUTER_BOUND('',#190,.T.);
#124=FACE_OUTER_BOUND('',#191,.T.);
#125=FACE_OUTER_BOUND('',#192,.T.);
#126=FACE_OUTER_BOUND('',#194,.T.);
#127=FACE_OUTER_BOUND('',#200,.T.);
#128=FACE_OUTER_BOUND('',#201,.T.);
#129=FACE_OUTER_BOUND('',#202,.T.);
#130=FACE_OUTER_BOUND('',#203,.T.);
#131=FACE_OUTER_BOUND('',#204,.T.);
#132=FACE_OUTER_BOUND('',#205,.T.);
#133=FACE_OUTER_BOUND('',#206,.T.);
#134=FACE_OUTER_BOUND('',#207,.T.);
#135=FACE_OUTER_BOUND('',#209,.T.);
#136=FACE_OUTER_BOUND('',#210,.T.);
#137=FACE_OUTER_BOUND('',#211,.T.);
#138=FACE_OUTER_BOUND('',#212,.T.);
#139=FACE_OUTER_BOUND('',#213,.T.);
#140=FACE_OUTER_BOUND('',#214,.T.);
#141=FACE_OUTER_BOUND('',#215,.T.);
#142=FACE_OUTER_BOUND('',#216,.T.);
#143=EDGE_LOOP('',(#712,#713,#714,#715));
#144=EDGE_LOOP('',(#716,#717,#718,#719));
#145=EDGE_LOOP('',(#720,#721,#722,#723));
#146=EDGE_LOOP('',(#724,#725,#726,#727));
#147=EDGE_LOOP('',(#728,#729,#730,#731));
#148=EDGE_LOOP('',(#732,#733,#734,#735,#736,#737,#738,#739));
#149=EDGE_LOOP('',(#740,#741,#742,#743));
#150=EDGE_LOOP('',(#744,#745,#746,#747));
#151=EDGE_LOOP('',(#748,#749,#750,#751));
#152=EDGE_LOOP('',(#752,#753,#754,#755));
#153=EDGE_LOOP('',(#756,#757,#758,#759));
#154=EDGE_LOOP('',(#760,#761,#762,#763));
#155=EDGE_LOOP('',(#764,#765,#766,#767,#768,#769,#770,#771));
#156=EDGE_LOOP('',(#772,#773,#774,#775));
#157=EDGE_LOOP('',(#776,#777,#778,#779));
#158=EDGE_LOOP('',(#780,#781,#782,#783));
#159=EDGE_LOOP('',(#784,#785,#786,#787));
#160=EDGE_LOOP('',(#788));
#161=EDGE_LOOP('',(#789));
#162=EDGE_LOOP('',(#790));
#163=EDGE_LOOP('',(#791));
#164=EDGE_LOOP('',(#792));
#165=EDGE_LOOP('',(#793,#794,#795,#796));
#166=EDGE_LOOP('',(#797));
#167=EDGE_LOOP('',(#798,#799,#800,#801));
#168=EDGE_LOOP('',(#802));
#169=EDGE_LOOP('',(#803,#804,#805,#806));
#170=EDGE_LOOP('',(#807));
#171=EDGE_LOOP('',(#808,#809,#810,#811));
#172=EDGE_LOOP('',(#812));
#173=EDGE_LOOP('',(#813,#814,#815,#816));
#174=EDGE_LOOP('',(#817));
#175=EDGE_LOOP('',(#818,#819,#820,#821));
#176=EDGE_LOOP('',(#822,#823,#824,#825));
#177=EDGE_LOOP('',(#826,#827,#828,#829));
#178=EDGE_LOOP('',(#830,#831,#832,#833));
#179=EDGE_LOOP('',(#834,#835,#836,#837,#838,#839,#840,#841));
#180=EDGE_LOOP('',(#842,#843,#844,#845));
#181=EDGE_LOOP('',(#846,#847,#848,#849));
#182=EDGE_LOOP('',(#850,#851,#852,#853));
#183=EDGE_LOOP('',(#854,#855,#856));
#184=EDGE_LOOP('',(#857,#858,#859,#860));
#185=EDGE_LOOP('',(#861,#862,#863));
#186=EDGE_LOOP('',(#864,#865,#866,#867));
#187=EDGE_LOOP('',(#868,#869,#870));
#188=EDGE_LOOP('',(#871,#872,#873,#874));
#189=EDGE_LOOP('',(#875,#876,#877));
#190=EDGE_LOOP('',(#878,#879,#880,#881));
#191=EDGE_LOOP('',(#882,#883,#884,#885));
#192=EDGE_LOOP('',(#886));
#193=EDGE_LOOP('',(#887));
#194=EDGE_LOOP('',(#888,#889,#890,#891,#892,#893,#894,#895));
#195=EDGE_LOOP('',(#896));
#196=EDGE_LOOP('',(#897));
#197=EDGE_LOOP('',(#898));
#198=EDGE_LOOP('',(#899));
#199=EDGE_LOOP('',(#900));
#200=EDGE_LOOP('',(#901,#902,#903,#904));
#201=EDGE_LOOP('',(#905,#906,#907,#908));
#202=EDGE_LOOP('',(#909,#910,#911,#912,#913,#914,#915,#916,#917,#918,#919,
#920));
#203=EDGE_LOOP('',(#921,#922,#923,#924));
#204=EDGE_LOOP('',(#925,#926,#927,#928,#929,#930,#931,#932,#933,#934,#935,
#936));
#205=EDGE_LOOP('',(#937,#938,#939,#940,#941,#942,#943,#944,#945,#946,#947,
#948));
#206=EDGE_LOOP('',(#949,#950,#951,#952));
#207=EDGE_LOOP('',(#953,#954,#955,#956,#957,#958,#959,#960,#961,#962,#963,
#964));
#208=EDGE_LOOP('',(#965,#966,#967,#968));
#209=EDGE_LOOP('',(#969,#970,#971,#972));
#210=EDGE_LOOP('',(#973,#974,#975,#976,#977));
#211=EDGE_LOOP('',(#978,#979,#980,#981));
#212=EDGE_LOOP('',(#982,#983,#984,#985));
#213=EDGE_LOOP('',(#986,#987));
#214=EDGE_LOOP('',(#988,#989,#990,#991));
#215=EDGE_LOOP('',(#992,#993));
#216=EDGE_LOOP('',(#994,#995,#996,#997,#998,#999,#1000,#1001,#1002,#1003));
#217=LINE('',#1503,#326);
#218=LINE('',#1506,#327);
#219=LINE('',#1512,#328);
#220=LINE('',#1515,#329);
#221=LINE('',#1521,#330);
#222=LINE('',#1524,#331);
#223=LINE('',#1530,#332);
#224=LINE('',#1533,#333);
#225=LINE('',#1536,#334);
#226=LINE('',#1538,#335);
#227=LINE('',#1539,#336);
#228=LINE('',#1543,#337);
#229=LINE('',#1545,#338);
#230=LINE('',#1547,#339);
#231=LINE('',#1549,#340);
#232=LINE('',#1551,#341);
#233=LINE('',#1553,#342);
#234=LINE('',#1555,#343);
#235=LINE('',#1556,#344);
#236=LINE('',#1559,#345);
#237=LINE('',#1561,#346);
#238=LINE('',#1562,#347);
#239=LINE('',#1565,#348);
#240=LINE('',#1567,#349);
#241=LINE('',#1568,#350);
#242=LINE('',#1571,#351);
#243=LINE('',#1573,#352);
#244=LINE('',#1574,#353);
#245=LINE('',#1577,#354);
#246=LINE('',#1579,#355);
#247=LINE('',#1580,#356);
#248=LINE('',#1583,#357);
#249=LINE('',#1585,#358);
#250=LINE('',#1586,#359);
#251=LINE('',#1588,#360);
#252=LINE('',#1589,#361);
#253=LINE('',#1592,#362);
#254=LINE('',#1594,#363);
#255=LINE('',#1595,#364);
#256=LINE('',#1599,#365);
#257=LINE('',#1600,#366);
#258=LINE('',#1601,#367);
#259=LINE('',#1603,#368);
#260=LINE('',#1605,#369);
#261=LINE('',#1620,#370);
#262=LINE('',#1625,#371);
#263=LINE('',#1630,#372);
#264=LINE('',#1635,#373);
#265=LINE('',#1640,#374);
#266=LINE('',#1644,#375);
#267=LINE('',#1646,#376);
#268=LINE('',#1647,#377);
#269=LINE('',#1650,#378);
#270=LINE('',#1652,#379);
#271=LINE('',#1653,#380);
#272=LINE('',#1656,#381);
#273=LINE('',#1658,#382);
#274=LINE('',#1659,#383);
#275=LINE('',#1662,#384);
#276=LINE('',#1664,#385);
#277=LINE('',#1665,#386);
#278=LINE('',#1667,#387);
#279=LINE('',#1668,#388);
#280=LINE('',#1669,#389);
#281=LINE('',#1670,#390);
#282=LINE('',#1673,#391);
#283=LINE('',#1675,#392);
#284=LINE('',#1676,#393);
#285=LINE('',#1679,#394);
#286=LINE('',#1681,#395);
#287=LINE('',#1682,#396);
#288=LINE('',#1685,#397);
#289=LINE('',#1687,#398);
#290=LINE('',#1688,#399);
#291=LINE('',#1693,#400);
#292=LINE('',#1697,#401);
#293=LINE('',#1702,#402);
#294=LINE('',#1706,#403);
#295=LINE('',#1711,#404);
#296=LINE('',#1715,#405);
#297=LINE('',#1720,#406);
#298=LINE('',#1724,#407);
#299=LINE('',#1729,#408);
#300=LINE('',#1737,#409);
#301=LINE('',#1739,#410);
#302=LINE('',#1741,#411);
#303=LINE('',#1743,#412);
#304=LINE('',#1745,#413);
#305=LINE('',#1747,#414);
#306=LINE('',#1749,#415);
#307=LINE('',#1750,#416);
#308=LINE('',#1753,#417);
#309=LINE('',#1755,#418);
#310=LINE('',#1756,#419);
#311=LINE('',#1758,#420);
#312=LINE('',#1759,#421);
#313=LINE('',#1761,#422);
#314=LINE('',#1763,#423);
#315=LINE('',#1765,#424);
#316=LINE('',#1767,#425);
#317=LINE('',#1769,#426);
#318=LINE('',#1771,#427);
#319=LINE('',#1791,#428);
#320=LINE('',#1792,#429);
#321=LINE('',#1795,#430);
#322=LINE('',#1797,#431);
#323=LINE('',#1798,#432);
#324=LINE('',#1804,#433);
#325=LINE('',#1809,#434);
#326=VECTOR('',#1198,10.);
#327=VECTOR('',#1201,10.);
#328=VECTOR('',#1206,10.);
#329=VECTOR('',#1209,10.);
#330=VECTOR('',#1214,10.);
#331=VECTOR('',#1217,10.);
#332=VECTOR('',#1222,10.);
#333=VECTOR('',#1225,10.);
#334=VECTOR('',#1228,10.);
#335=VECTOR('',#1229,10.);
#336=VECTOR('',#1230,10.);
#337=VECTOR('',#1233,10.);
#338=VECTOR('',#1234,10.);
#339=VECTOR('',#1235,10.);
#340=VECTOR('',#1236,10.);
#341=VECTOR('',#1237,10.);
#342=VECTOR('',#1238,10.);
#343=VECTOR('',#1239,10.);
#344=VECTOR('',#1240,10.);
#345=VECTOR('',#1243,10.);
#346=VECTOR('',#1244,10.);
#347=VECTOR('',#1245,10.);
#348=VECTOR('',#1248,10.);
#349=VECTOR('',#1249,10.);
#350=VECTOR('',#1250,10.);
#351=VECTOR('',#1253,10.);
#352=VECTOR('',#1254,10.);
#353=VECTOR('',#1255,10.);
#354=VECTOR('',#1258,10.);
#355=VECTOR('',#1259,10.);
#356=VECTOR('',#1260,10.);
#357=VECTOR('',#1263,10.);
#358=VECTOR('',#1264,10.);
#359=VECTOR('',#1265,10.);
#360=VECTOR('',#1268,10.);
#361=VECTOR('',#1269,10.);
#362=VECTOR('',#1272,10.);
#363=VECTOR('',#1273,10.);
#364=VECTOR('',#1274,10.);
#365=VECTOR('',#1277,10.);
#366=VECTOR('',#1278,10.);
#367=VECTOR('',#1279,10.);
#368=VECTOR('',#1282,10.);
#369=VECTOR('',#1285,10.);
#370=VECTOR('',#1302,0.499999999999999);
#371=VECTOR('',#1309,0.499999999999999);
#372=VECTOR('',#1316,0.5);
#373=VECTOR('',#1323,0.5);
#374=VECTOR('',#1330,0.5);
#375=VECTOR('',#1335,10.);
#376=VECTOR('',#1336,10.);
#377=VECTOR('',#1337,10.);
#378=VECTOR('',#1340,10.);
#379=VECTOR('',#1341,10.);
#380=VECTOR('',#1342,10.);
#381=VECTOR('',#1345,10.);
#382=VECTOR('',#1346,10.);
#383=VECTOR('',#1347,10.);
#384=VECTOR('',#1350,10.);
#385=VECTOR('',#1351,10.);
#386=VECTOR('',#1352,10.);
#387=VECTOR('',#1355,10.);
#388=VECTOR('',#1356,10.);
#389=VECTOR('',#1357,10.);
#390=VECTOR('',#1358,10.);
#391=VECTOR('',#1361,10.);
#392=VECTOR('',#1362,10.);
#393=VECTOR('',#1363,10.);
#394=VECTOR('',#1366,10.);
#395=VECTOR('',#1367,10.);
#396=VECTOR('',#1368,10.);
#397=VECTOR('',#1371,10.);
#398=VECTOR('',#1372,10.);
#399=VECTOR('',#1373,10.);
#400=VECTOR('',#1378,0.85);
#401=VECTOR('',#1383,1.7);
#402=VECTOR('',#1388,0.85);
#403=VECTOR('',#1393,1.7);
#404=VECTOR('',#1398,0.85);
#405=VECTOR('',#1403,1.7);
#406=VECTOR('',#1408,0.85);
#407=VECTOR('',#1413,1.7);
#408=VECTOR('',#1418,11.);
#409=VECTOR('',#1427,10.);
#410=VECTOR('',#1428,10.);
#411=VECTOR('',#1429,10.);
#412=VECTOR('',#1430,10.);
#413=VECTOR('',#1431,10.);
#414=VECTOR('',#1432,10.);
#415=VECTOR('',#1433,10.);
#416=VECTOR('',#1434,10.);
#417=VECTOR('',#1437,10.);
#418=VECTOR('',#1438,10.);
#419=VECTOR('',#1439,10.);
#420=VECTOR('',#1442,10.);
#421=VECTOR('',#1443,10.);
#422=VECTOR('',#1446,10.);
#423=VECTOR('',#1449,10.);
#424=VECTOR('',#1452,10.);
#425=VECTOR('',#1455,10.);
#426=VECTOR('',#1458,10.);
#427=VECTOR('',#1461,10.);
#428=VECTOR('',#1474,10.);
#429=VECTOR('',#1475,10.);
#430=VECTOR('',#1478,10.);
#431=VECTOR('',#1479,10.);
#432=VECTOR('',#1480,10.);
#433=VECTOR('',#1487,10.);
#434=VECTOR('',#1496,2.5);
#435=CIRCLE('',#1096,10.);
#436=CIRCLE('',#1097,10.);
#437=CIRCLE('',#1099,10.);
#438=CIRCLE('',#1100,10.);
#439=CIRCLE('',#1102,10.);
#440=CIRCLE('',#1103,10.);
#441=CIRCLE('',#1105,10.);
#442=CIRCLE('',#1106,10.);
#443=CIRCLE('',#1120,0.499999999999999);
#444=CIRCLE('',#1121,0.5);
#445=CIRCLE('',#1122,0.499999999999999);
#446=CIRCLE('',#1123,0.5);
#447=CIRCLE('',#1124,0.5);
#448=CIRCLE('',#1126,0.499999999999999);
#449=CIRCLE('',#1129,0.499999999999999);
#450=CIRCLE('',#1132,0.5);
#451=CIRCLE('',#1135,0.5);
#452=CIRCLE('',#1138,0.5);
#453=CIRCLE('',#1149,1.7);
#454=CIRCLE('',#1151,1.7);
#455=CIRCLE('',#1153,1.7);
#456=CIRCLE('',#1155,1.7);
#457=CIRCLE('',#1157,1.7);
#458=CIRCLE('',#1159,1.7);
#459=CIRCLE('',#1161,1.7);
#460=CIRCLE('',#1163,1.7);
#461=CIRCLE('',#1165,11.);
#462=CIRCLE('',#1166,11.);
#463=CIRCLE('',#1168,2.5);
#464=CIRCLE('',#1180,2.);
#465=CIRCLE('',#1181,2.5);
#466=CIRCLE('',#1182,2.5);
#467=CIRCLE('',#1190,2.5);
#468=VERTEX_POINT('',#1499);
#469=VERTEX_POINT('',#1500);
#470=VERTEX_POINT('',#1502);
#471=VERTEX_POINT('',#1504);
#472=VERTEX_POINT('',#1508);
#473=VERTEX_POINT('',#1509);
#474=VERTEX_POINT('',#1511);
#475=VERTEX_POINT('',#1513);
#476=VERTEX_POINT('',#1517);
#477=VERTEX_POINT('',#1518);
#478=VERTEX_POINT('',#1520);
#479=VERTEX_POINT('',#1522);
#480=VERTEX_POINT('',#1526);
#481=VERTEX_POINT('',#1527);
#482=VERTEX_POINT('',#1529);
#483=VERTEX_POINT('',#1531);
#484=VERTEX_POINT('',#1535);
#485=VERTEX_POINT('',#1537);
#486=VERTEX_POINT('',#1541);
#487=VERTEX_POINT('',#1542);
#488=VERTEX_POINT('',#1544);
#489=VERTEX_POINT('',#1546);
#490=VERTEX_POINT('',#1548);
#491=VERTEX_POINT('',#1550);
#492=VERTEX_POINT('',#1552);
#493=VERTEX_POINT('',#1554);
#494=VERTEX_POINT('',#1558);
#495=VERTEX_POINT('',#1560);
#496=VERTEX_POINT('',#1564);
#497=VERTEX_POINT('',#1566);
#498=VERTEX_POINT('',#1570);
#499=VERTEX_POINT('',#1572);
#500=VERTEX_POINT('',#1576);
#501=VERTEX_POINT('',#1578);
#502=VERTEX_POINT('',#1582);
#503=VERTEX_POINT('',#1584);
#504=VERTEX_POINT('',#1591);
#505=VERTEX_POINT('',#1593);
#506=VERTEX_POINT('',#1597);
#507=VERTEX_POINT('',#1598);
#508=VERTEX_POINT('',#1607);
#509=VERTEX_POINT('',#1609);
#510=VERTEX_POINT('',#1611);
#511=VERTEX_POINT('',#1613);
#512=VERTEX_POINT('',#1615);
#513=VERTEX_POINT('',#1618);
#514=VERTEX_POINT('',#1623);
#515=VERTEX_POINT('',#1628);
#516=VERTEX_POINT('',#1633);
#517=VERTEX_POINT('',#1638);
#518=VERTEX_POINT('',#1643);
#519=VERTEX_POINT('',#1645);
#520=VERTEX_POINT('',#1649);
#521=VERTEX_POINT('',#1651);
#522=VERTEX_POINT('',#1655);
#523=VERTEX_POINT('',#1657);
#524=VERTEX_POINT('',#1661);
#525=VERTEX_POINT('',#1663);
#526=VERTEX_POINT('',#1672);
#527=VERTEX_POINT('',#1674);
#528=VERTEX_POINT('',#1678);
#529=VERTEX_POINT('',#1680);
#530=VERTEX_POINT('',#1684);
#531=VERTEX_POINT('',#1686);
#532=VERTEX_POINT('',#1690);
#533=VERTEX_POINT('',#1692);
#534=VERTEX_POINT('',#1695);
#535=VERTEX_POINT('',#1699);
#536=VERTEX_POINT('',#1701);
#537=VERTEX_POINT('',#1704);
#538=VERTEX_POINT('',#1708);
#539=VERTEX_POINT('',#1710);
#540=VERTEX_POINT('',#1713);
#541=VERTEX_POINT('',#1717);
#542=VERTEX_POINT('',#1719);
#543=VERTEX_POINT('',#1722);
#544=VERTEX_POINT('',#1726);
#545=VERTEX_POINT('',#1728);
#546=VERTEX_POINT('',#1732);
#547=VERTEX_POINT('',#1735);
#548=VERTEX_POINT('',#1736);
#549=VERTEX_POINT('',#1738);
#550=VERTEX_POINT('',#1740);
#551=VERTEX_POINT('',#1742);
#552=VERTEX_POINT('',#1744);
#553=VERTEX_POINT('',#1746);
#554=VERTEX_POINT('',#1748);
#555=VERTEX_POINT('',#1752);
#556=VERTEX_POINT('',#1754);
#557=VERTEX_POINT('',#1774);
#558=VERTEX_POINT('',#1775);
#559=VERTEX_POINT('',#1777);
#560=VERTEX_POINT('',#1782);
#561=VERTEX_POINT('',#1784);
#562=VERTEX_POINT('',#1794);
#563=VERTEX_POINT('',#1796);
#564=VERTEX_POINT('',#1801);
#565=VERTEX_POINT('',#1803);
#566=EDGE_CURVE('',#468,#469,#435,.T.);
#567=EDGE_CURVE('',#468,#470,#217,.T.);
#568=EDGE_CURVE('',#471,#470,#436,.T.);
#569=EDGE_CURVE('',#471,#469,#218,.T.);
#570=EDGE_CURVE('',#472,#473,#437,.T.);
#571=EDGE_CURVE('',#472,#474,#219,.T.);
#572=EDGE_CURVE('',#475,#474,#438,.T.);
#573=EDGE_CURVE('',#475,#473,#220,.T.);
#574=EDGE_CURVE('',#476,#477,#439,.T.);
#575=EDGE_CURVE('',#476,#478,#221,.T.);
#576=EDGE_CURVE('',#479,#478,#440,.T.);
#577=EDGE_CURVE('',#479,#477,#222,.T.);
#578=EDGE_CURVE('',#480,#481,#441,.T.);
#579=EDGE_CURVE('',#480,#482,#223,.T.);
#580=EDGE_CURVE('',#483,#482,#442,.T.);
#581=EDGE_CURVE('',#483,#481,#224,.T.);
#582=EDGE_CURVE('',#482,#484,#225,.T.);
#583=EDGE_CURVE('',#484,#485,#226,.T.);
#584=EDGE_CURVE('',#485,#483,#227,.T.);
#585=EDGE_CURVE('',#486,#487,#228,.T.);
#586=EDGE_CURVE('',#487,#488,#229,.T.);
#587=EDGE_CURVE('',#489,#488,#230,.T.);
#588=EDGE_CURVE('',#490,#489,#231,.T.);
#589=EDGE_CURVE('',#491,#490,#232,.T.);
#590=EDGE_CURVE('',#491,#492,#233,.T.);
#591=EDGE_CURVE('',#493,#492,#234,.T.);
#592=EDGE_CURVE('',#486,#493,#235,.T.);
#593=EDGE_CURVE('',#478,#494,#236,.T.);
#594=EDGE_CURVE('',#494,#495,#237,.T.);
#595=EDGE_CURVE('',#495,#479,#238,.T.);
#596=EDGE_CURVE('',#474,#496,#239,.T.);
#597=EDGE_CURVE('',#496,#497,#240,.T.);
#598=EDGE_CURVE('',#497,#475,#241,.T.);
#599=EDGE_CURVE('',#470,#498,#242,.T.);
#600=EDGE_CURVE('',#498,#499,#243,.T.);
#601=EDGE_CURVE('',#499,#471,#244,.T.);
#602=EDGE_CURVE('',#500,#491,#245,.T.);
#603=EDGE_CURVE('',#500,#501,#246,.T.);
#604=EDGE_CURVE('',#492,#501,#247,.T.);
#605=EDGE_CURVE('',#502,#500,#248,.T.);
#606=EDGE_CURVE('',#502,#503,#249,.T.);
#607=EDGE_CURVE('',#501,#503,#250,.T.);
#608=EDGE_CURVE('',#490,#502,#251,.T.);
#609=EDGE_CURVE('',#503,#489,#252,.T.);
#610=EDGE_CURVE('',#488,#504,#253,.T.);
#611=EDGE_CURVE('',#504,#505,#254,.T.);
#612=EDGE_CURVE('',#505,#493,#255,.T.);
#613=EDGE_CURVE('',#506,#507,#256,.T.);
#614=EDGE_CURVE('',#506,#505,#257,.T.);
#615=EDGE_CURVE('',#507,#504,#258,.T.);
#616=EDGE_CURVE('',#507,#487,#259,.T.);
#617=EDGE_CURVE('',#486,#506,#260,.T.);
#618=EDGE_CURVE('',#508,#508,#443,.T.);
#619=EDGE_CURVE('',#509,#509,#444,.T.);
#620=EDGE_CURVE('',#510,#510,#445,.T.);
#621=EDGE_CURVE('',#511,#511,#446,.T.);
#622=EDGE_CURVE('',#512,#512,#447,.T.);
#623=EDGE_CURVE('',#513,#513,#448,.T.);
#624=EDGE_CURVE('',#513,#510,#261,.T.);
#625=EDGE_CURVE('',#514,#514,#449,.T.);
#626=EDGE_CURVE('',#514,#508,#262,.T.);
#627=EDGE_CURVE('',#515,#515,#450,.T.);
#628=EDGE_CURVE('',#515,#512,#263,.T.);
#629=EDGE_CURVE('',#516,#516,#451,.T.);
#630=EDGE_CURVE('',#516,#509,#264,.T.);
#631=EDGE_CURVE('',#517,#517,#452,.T.);
#632=EDGE_CURVE('',#517,#511,#265,.T.);
#633=EDGE_CURVE('',#498,#518,#266,.T.);
#634=EDGE_CURVE('',#518,#519,#267,.T.);
#635=EDGE_CURVE('',#499,#519,#268,.T.);
#636=EDGE_CURVE('',#496,#520,#269,.T.);
#637=EDGE_CURVE('',#520,#521,#270,.T.);
#638=EDGE_CURVE('',#497,#521,#271,.T.);
#639=EDGE_CURVE('',#484,#522,#272,.T.);
#640=EDGE_CURVE('',#522,#523,#273,.T.);
#641=EDGE_CURVE('',#485,#523,#274,.T.);
#642=EDGE_CURVE('',#494,#524,#275,.T.);
#643=EDGE_CURVE('',#524,#525,#276,.T.);
#644=EDGE_CURVE('',#495,#525,#277,.T.);
#645=EDGE_CURVE('',#521,#524,#278,.T.);
#646=EDGE_CURVE('',#519,#520,#279,.T.);
#647=EDGE_CURVE('',#523,#518,#280,.T.);
#648=EDGE_CURVE('',#525,#522,#281,.T.);
#649=EDGE_CURVE('',#526,#481,#282,.T.);
#650=EDGE_CURVE('',#527,#526,#283,.T.);
#651=EDGE_CURVE('',#480,#527,#284,.T.);
#652=EDGE_CURVE('',#528,#469,#285,.T.);
#653=EDGE_CURVE('',#529,#528,#286,.T.);
#654=EDGE_CURVE('',#468,#529,#287,.T.);
#655=EDGE_CURVE('',#530,#473,#288,.T.);
#656=EDGE_CURVE('',#531,#530,#289,.T.);
#657=EDGE_CURVE('',#472,#531,#290,.T.);
#658=EDGE_CURVE('',#532,#532,#453,.T.);
#659=EDGE_CURVE('',#532,#533,#291,.T.);
#660=EDGE_CURVE('',#534,#534,#454,.T.);
#661=EDGE_CURVE('',#534,#532,#292,.T.);
#662=EDGE_CURVE('',#535,#535,#455,.T.);
#663=EDGE_CURVE('',#535,#536,#293,.T.);
#664=EDGE_CURVE('',#537,#537,#456,.T.);
#665=EDGE_CURVE('',#537,#535,#294,.T.);
#666=EDGE_CURVE('',#538,#538,#457,.T.);
#667=EDGE_CURVE('',#538,#539,#295,.T.);
#668=EDGE_CURVE('',#540,#540,#458,.T.);
#669=EDGE_CURVE('',#540,#538,#296,.T.);
#670=EDGE_CURVE('',#541,#541,#459,.T.);
#671=EDGE_CURVE('',#541,#542,#297,.T.);
#672=EDGE_CURVE('',#543,#543,#460,.T.);
#673=EDGE_CURVE('',#543,#541,#298,.T.);
#674=EDGE_CURVE('',#544,#544,#461,.T.);
#675=EDGE_CURVE('',#544,#545,#299,.T.);
#676=EDGE_CURVE('',#545,#545,#462,.T.);
#677=EDGE_CURVE('',#546,#546,#463,.T.);
#678=EDGE_CURVE('',#547,#548,#300,.T.);
#679=EDGE_CURVE('',#548,#549,#301,.T.);
#680=EDGE_CURVE('',#549,#550,#302,.T.);
#681=EDGE_CURVE('',#550,#551,#303,.T.);
#682=EDGE_CURVE('',#551,#552,#304,.T.);
#683=EDGE_CURVE('',#552,#553,#305,.T.);
#684=EDGE_CURVE('',#553,#554,#306,.T.);
#685=EDGE_CURVE('',#554,#547,#307,.T.);
#686=EDGE_CURVE('',#555,#477,#308,.T.);
#687=EDGE_CURVE('',#556,#555,#309,.T.);
#688=EDGE_CURVE('',#476,#556,#310,.T.);
#689=EDGE_CURVE('',#528,#553,#311,.T.);
#690=EDGE_CURVE('',#529,#552,#312,.T.);
#691=EDGE_CURVE('',#531,#554,#313,.T.);
#692=EDGE_CURVE('',#530,#547,#314,.T.);
#693=EDGE_CURVE('',#556,#548,#315,.T.);
#694=EDGE_CURVE('',#526,#551,#316,.T.);
#695=EDGE_CURVE('',#527,#550,#317,.T.);
#696=EDGE_CURVE('',#555,#549,#318,.T.);
#697=EDGE_CURVE('',#557,#558,#464,.T.);
#698=EDGE_CURVE('',#558,#559,#16,.T.);
#699=EDGE_CURVE('',#559,#560,#465,.T.);
#700=EDGE_CURVE('',#560,#561,#466,.T.);
#701=EDGE_CURVE('',#557,#561,#17,.T.);
#702=EDGE_CURVE('',#561,#559,#319,.T.);
#703=EDGE_CURVE('',#558,#557,#320,.T.);
#704=EDGE_CURVE('',#562,#561,#321,.T.);
#705=EDGE_CURVE('',#563,#562,#322,.T.);
#706=EDGE_CURVE('',#559,#563,#323,.T.);
#707=EDGE_CURVE('',#562,#564,#14,.T.);
#708=EDGE_CURVE('',#564,#565,#324,.T.);
#709=EDGE_CURVE('',#565,#563,#15,.T.);
#710=EDGE_CURVE('',#565,#564,#467,.T.);
#711=EDGE_CURVE('',#560,#546,#325,.T.);
#712=ORIENTED_EDGE('',*,*,#566,.F.);
#713=ORIENTED_EDGE('',*,*,#567,.T.);
#714=ORIENTED_EDGE('',*,*,#568,.F.);
#715=ORIENTED_EDGE('',*,*,#569,.T.);
#716=ORIENTED_EDGE('',*,*,#570,.F.);
#717=ORIENTED_EDGE('',*,*,#571,.T.);
#718=ORIENTED_EDGE('',*,*,#572,.F.);
#719=ORIENTED_EDGE('',*,*,#573,.T.);
#720=ORIENTED_EDGE('',*,*,#574,.F.);
#721=ORIENTED_EDGE('',*,*,#575,.T.);
#722=ORIENTED_EDGE('',*,*,#576,.F.);
#723=ORIENTED_EDGE('',*,*,#577,.T.);
#724=ORIENTED_EDGE('',*,*,#578,.F.);
#725=ORIENTED_EDGE('',*,*,#579,.T.);
#726=ORIENTED_EDGE('',*,*,#580,.F.);
#727=ORIENTED_EDGE('',*,*,#581,.T.);
#728=ORIENTED_EDGE('',*,*,#580,.T.);
#729=ORIENTED_EDGE('',*,*,#582,.T.);
#730=ORIENTED_EDGE('',*,*,#583,.T.);
#731=ORIENTED_EDGE('',*,*,#584,.T.);
#732=ORIENTED_EDGE('',*,*,#585,.T.);
#733=ORIENTED_EDGE('',*,*,#586,.T.);
#734=ORIENTED_EDGE('',*,*,#587,.F.);
#735=ORIENTED_EDGE('',*,*,#588,.F.);
#736=ORIENTED_EDGE('',*,*,#589,.F.);
#737=ORIENTED_EDGE('',*,*,#590,.T.);
#738=ORIENTED_EDGE('',*,*,#591,.F.);
#739=ORIENTED_EDGE('',*,*,#592,.F.);
#740=ORIENTED_EDGE('',*,*,#576,.T.);
#741=ORIENTED_EDGE('',*,*,#593,.T.);
#742=ORIENTED_EDGE('',*,*,#594,.T.);
#743=ORIENTED_EDGE('',*,*,#595,.T.);
#744=ORIENTED_EDGE('',*,*,#572,.T.);
#745=ORIENTED_EDGE('',*,*,#596,.T.);
#746=ORIENTED_EDGE('',*,*,#597,.T.);
#747=ORIENTED_EDGE('',*,*,#598,.T.);
#748=ORIENTED_EDGE('',*,*,#568,.T.);
#749=ORIENTED_EDGE('',*,*,#599,.T.);
#750=ORIENTED_EDGE('',*,*,#600,.T.);
#751=ORIENTED_EDGE('',*,*,#601,.T.);
#752=ORIENTED_EDGE('',*,*,#602,.F.);
#753=ORIENTED_EDGE('',*,*,#603,.T.);
#754=ORIENTED_EDGE('',*,*,#604,.F.);
#755=ORIENTED_EDGE('',*,*,#590,.F.);
#756=ORIENTED_EDGE('',*,*,#605,.F.);
#757=ORIENTED_EDGE('',*,*,#606,.T.);
#758=ORIENTED_EDGE('',*,*,#607,.F.);
#759=ORIENTED_EDGE('',*,*,#603,.F.);
#760=ORIENTED_EDGE('',*,*,#608,.F.);
#761=ORIENTED_EDGE('',*,*,#588,.T.);
#762=ORIENTED_EDGE('',*,*,#609,.F.);
#763=ORIENTED_EDGE('',*,*,#606,.F.);
#764=ORIENTED_EDGE('',*,*,#609,.T.);
#765=ORIENTED_EDGE('',*,*,#587,.T.);
#766=ORIENTED_EDGE('',*,*,#610,.T.);
#767=ORIENTED_EDGE('',*,*,#611,.T.);
#768=ORIENTED_EDGE('',*,*,#612,.T.);
#769=ORIENTED_EDGE('',*,*,#591,.T.);
#770=ORIENTED_EDGE('',*,*,#604,.T.);
#771=ORIENTED_EDGE('',*,*,#607,.T.);
#772=ORIENTED_EDGE('',*,*,#613,.F.);
#773=ORIENTED_EDGE('',*,*,#614,.T.);
#774=ORIENTED_EDGE('',*,*,#611,.F.);
#775=ORIENTED_EDGE('',*,*,#615,.F.);
#776=ORIENTED_EDGE('',*,*,#616,.F.);
#777=ORIENTED_EDGE('',*,*,#615,.T.);
#778=ORIENTED_EDGE('',*,*,#610,.F.);
#779=ORIENTED_EDGE('',*,*,#586,.F.);
#780=ORIENTED_EDGE('',*,*,#617,.F.);
#781=ORIENTED_EDGE('',*,*,#592,.T.);
#782=ORIENTED_EDGE('',*,*,#612,.F.);
#783=ORIENTED_EDGE('',*,*,#614,.F.);
#784=ORIENTED_EDGE('',*,*,#602,.T.);
#785=ORIENTED_EDGE('',*,*,#589,.T.);
#786=ORIENTED_EDGE('',*,*,#608,.T.);
#787=ORIENTED_EDGE('',*,*,#605,.T.);
#788=ORIENTED_EDGE('',*,*,#618,.F.);
#789=ORIENTED_EDGE('',*,*,#619,.F.);
#790=ORIENTED_EDGE('',*,*,#620,.F.);
#791=ORIENTED_EDGE('',*,*,#621,.F.);
#792=ORIENTED_EDGE('',*,*,#622,.F.);
#793=ORIENTED_EDGE('',*,*,#623,.F.);
#794=ORIENTED_EDGE('',*,*,#624,.T.);
#795=ORIENTED_EDGE('',*,*,#620,.T.);
#796=ORIENTED_EDGE('',*,*,#624,.F.);
#797=ORIENTED_EDGE('',*,*,#623,.T.);
#798=ORIENTED_EDGE('',*,*,#625,.F.);
#799=ORIENTED_EDGE('',*,*,#626,.T.);
#800=ORIENTED_EDGE('',*,*,#618,.T.);
#801=ORIENTED_EDGE('',*,*,#626,.F.);
#802=ORIENTED_EDGE('',*,*,#625,.T.);
#803=ORIENTED_EDGE('',*,*,#627,.F.);
#804=ORIENTED_EDGE('',*,*,#628,.T.);
#805=ORIENTED_EDGE('',*,*,#622,.T.);
#806=ORIENTED_EDGE('',*,*,#628,.F.);
#807=ORIENTED_EDGE('',*,*,#627,.T.);
#808=ORIENTED_EDGE('',*,*,#629,.F.);
#809=ORIENTED_EDGE('',*,*,#630,.T.);
#810=ORIENTED_EDGE('',*,*,#619,.T.);
#811=ORIENTED_EDGE('',*,*,#630,.F.);
#812=ORIENTED_EDGE('',*,*,#629,.T.);
#813=ORIENTED_EDGE('',*,*,#631,.F.);
#814=ORIENTED_EDGE('',*,*,#632,.T.);
#815=ORIENTED_EDGE('',*,*,#621,.T.);
#816=ORIENTED_EDGE('',*,*,#632,.F.);
#817=ORIENTED_EDGE('',*,*,#631,.T.);
#818=ORIENTED_EDGE('',*,*,#600,.F.);
#819=ORIENTED_EDGE('',*,*,#633,.T.);
#820=ORIENTED_EDGE('',*,*,#634,.T.);
#821=ORIENTED_EDGE('',*,*,#635,.F.);
#822=ORIENTED_EDGE('',*,*,#597,.F.);
#823=ORIENTED_EDGE('',*,*,#636,.T.);
#824=ORIENTED_EDGE('',*,*,#637,.T.);
#825=ORIENTED_EDGE('',*,*,#638,.F.);
#826=ORIENTED_EDGE('',*,*,#583,.F.);
#827=ORIENTED_EDGE('',*,*,#639,.T.);
#828=ORIENTED_EDGE('',*,*,#640,.T.);
#829=ORIENTED_EDGE('',*,*,#641,.F.);
#830=ORIENTED_EDGE('',*,*,#594,.F.);
#831=ORIENTED_EDGE('',*,*,#642,.T.);
#832=ORIENTED_EDGE('',*,*,#643,.T.);
#833=ORIENTED_EDGE('',*,*,#644,.F.);
#834=ORIENTED_EDGE('',*,*,#645,.F.);
#835=ORIENTED_EDGE('',*,*,#637,.F.);
#836=ORIENTED_EDGE('',*,*,#646,.F.);
#837=ORIENTED_EDGE('',*,*,#634,.F.);
#838=ORIENTED_EDGE('',*,*,#647,.F.);
#839=ORIENTED_EDGE('',*,*,#640,.F.);
#840=ORIENTED_EDGE('',*,*,#648,.F.);
#841=ORIENTED_EDGE('',*,*,#643,.F.);
#842=ORIENTED_EDGE('',*,*,#578,.T.);
#843=ORIENTED_EDGE('',*,*,#649,.F.);
#844=ORIENTED_EDGE('',*,*,#650,.F.);
#845=ORIENTED_EDGE('',*,*,#651,.F.);
#846=ORIENTED_EDGE('',*,*,#566,.T.);
#847=ORIENTED_EDGE('',*,*,#652,.F.);
#848=ORIENTED_EDGE('',*,*,#653,.F.);
#849=ORIENTED_EDGE('',*,*,#654,.F.);
#850=ORIENTED_EDGE('',*,*,#570,.T.);
#851=ORIENTED_EDGE('',*,*,#655,.F.);
#852=ORIENTED_EDGE('',*,*,#656,.F.);
#853=ORIENTED_EDGE('',*,*,#657,.F.);
#854=ORIENTED_EDGE('',*,*,#658,.F.);
#855=ORIENTED_EDGE('',*,*,#659,.T.);
#856=ORIENTED_EDGE('',*,*,#659,.F.);
#857=ORIENTED_EDGE('',*,*,#660,.F.);
#858=ORIENTED_EDGE('',*,*,#661,.T.);
#859=ORIENTED_EDGE('',*,*,#658,.T.);
#860=ORIENTED_EDGE('',*,*,#661,.F.);
#861=ORIENTED_EDGE('',*,*,#662,.F.);
#862=ORIENTED_EDGE('',*,*,#663,.T.);
#863=ORIENTED_EDGE('',*,*,#663,.F.);
#864=ORIENTED_EDGE('',*,*,#664,.F.);
#865=ORIENTED_EDGE('',*,*,#665,.T.);
#866=ORIENTED_EDGE('',*,*,#662,.T.);
#867=ORIENTED_EDGE('',*,*,#665,.F.);
#868=ORIENTED_EDGE('',*,*,#666,.F.);
#869=ORIENTED_EDGE('',*,*,#667,.T.);
#870=ORIENTED_EDGE('',*,*,#667,.F.);
#871=ORIENTED_EDGE('',*,*,#668,.F.);
#872=ORIENTED_EDGE('',*,*,#669,.T.);
#873=ORIENTED_EDGE('',*,*,#666,.T.);
#874=ORIENTED_EDGE('',*,*,#669,.F.);
#875=ORIENTED_EDGE('',*,*,#670,.F.);
#876=ORIENTED_EDGE('',*,*,#671,.T.);
#877=ORIENTED_EDGE('',*,*,#671,.F.);
#878=ORIENTED_EDGE('',*,*,#672,.F.);
#879=ORIENTED_EDGE('',*,*,#673,.T.);
#880=ORIENTED_EDGE('',*,*,#670,.T.);
#881=ORIENTED_EDGE('',*,*,#673,.F.);
#882=ORIENTED_EDGE('',*,*,#674,.F.);
#883=ORIENTED_EDGE('',*,*,#675,.T.);
#884=ORIENTED_EDGE('',*,*,#676,.F.);
#885=ORIENTED_EDGE('',*,*,#675,.F.);
#886=ORIENTED_EDGE('',*,*,#674,.T.);
#887=ORIENTED_EDGE('',*,*,#677,.F.);
#888=ORIENTED_EDGE('',*,*,#678,.T.);
#889=ORIENTED_EDGE('',*,*,#679,.T.);
#890=ORIENTED_EDGE('',*,*,#680,.T.);
#891=ORIENTED_EDGE('',*,*,#681,.T.);
#892=ORIENTED_EDGE('',*,*,#682,.T.);
#893=ORIENTED_EDGE('',*,*,#683,.T.);
#894=ORIENTED_EDGE('',*,*,#684,.T.);
#895=ORIENTED_EDGE('',*,*,#685,.T.);
#896=ORIENTED_EDGE('',*,*,#660,.T.);
#897=ORIENTED_EDGE('',*,*,#664,.T.);
#898=ORIENTED_EDGE('',*,*,#668,.T.);
#899=ORIENTED_EDGE('',*,*,#672,.T.);
#900=ORIENTED_EDGE('',*,*,#676,.T.);
#901=ORIENTED_EDGE('',*,*,#574,.T.);
#902=ORIENTED_EDGE('',*,*,#686,.F.);
#903=ORIENTED_EDGE('',*,*,#687,.F.);
#904=ORIENTED_EDGE('',*,*,#688,.F.);
#905=ORIENTED_EDGE('',*,*,#653,.T.);
#906=ORIENTED_EDGE('',*,*,#689,.T.);
#907=ORIENTED_EDGE('',*,*,#683,.F.);
#908=ORIENTED_EDGE('',*,*,#690,.F.);
#909=ORIENTED_EDGE('',*,*,#657,.T.);
#910=ORIENTED_EDGE('',*,*,#691,.T.);
#911=ORIENTED_EDGE('',*,*,#684,.F.);
#912=ORIENTED_EDGE('',*,*,#689,.F.);
#913=ORIENTED_EDGE('',*,*,#652,.T.);
#914=ORIENTED_EDGE('',*,*,#569,.F.);
#915=ORIENTED_EDGE('',*,*,#601,.F.);
#916=ORIENTED_EDGE('',*,*,#635,.T.);
#917=ORIENTED_EDGE('',*,*,#646,.T.);
#918=ORIENTED_EDGE('',*,*,#636,.F.);
#919=ORIENTED_EDGE('',*,*,#596,.F.);
#920=ORIENTED_EDGE('',*,*,#571,.F.);
#921=ORIENTED_EDGE('',*,*,#656,.T.);
#922=ORIENTED_EDGE('',*,*,#692,.T.);
#923=ORIENTED_EDGE('',*,*,#685,.F.);
#924=ORIENTED_EDGE('',*,*,#691,.F.);
#925=ORIENTED_EDGE('',*,*,#688,.T.);
#926=ORIENTED_EDGE('',*,*,#693,.T.);
#927=ORIENTED_EDGE('',*,*,#678,.F.);
#928=ORIENTED_EDGE('',*,*,#692,.F.);
#929=ORIENTED_EDGE('',*,*,#655,.T.);
#930=ORIENTED_EDGE('',*,*,#573,.F.);
#931=ORIENTED_EDGE('',*,*,#598,.F.);
#932=ORIENTED_EDGE('',*,*,#638,.T.);
#933=ORIENTED_EDGE('',*,*,#645,.T.);
#934=ORIENTED_EDGE('',*,*,#642,.F.);
#935=ORIENTED_EDGE('',*,*,#593,.F.);
#936=ORIENTED_EDGE('',*,*,#575,.F.);
#937=ORIENTED_EDGE('',*,*,#654,.T.);
#938=ORIENTED_EDGE('',*,*,#690,.T.);
#939=ORIENTED_EDGE('',*,*,#682,.F.);
#940=ORIENTED_EDGE('',*,*,#694,.F.);
#941=ORIENTED_EDGE('',*,*,#649,.T.);
#942=ORIENTED_EDGE('',*,*,#581,.F.);
#943=ORIENTED_EDGE('',*,*,#584,.F.);
#944=ORIENTED_EDGE('',*,*,#641,.T.);
#945=ORIENTED_EDGE('',*,*,#647,.T.);
#946=ORIENTED_EDGE('',*,*,#633,.F.);
#947=ORIENTED_EDGE('',*,*,#599,.F.);
#948=ORIENTED_EDGE('',*,*,#567,.F.);
#949=ORIENTED_EDGE('',*,*,#650,.T.);
#950=ORIENTED_EDGE('',*,*,#694,.T.);
#951=ORIENTED_EDGE('',*,*,#681,.F.);
#952=ORIENTED_EDGE('',*,*,#695,.F.);
#953=ORIENTED_EDGE('',*,*,#651,.T.);
#954=ORIENTED_EDGE('',*,*,#695,.T.);
#955=ORIENTED_EDGE('',*,*,#680,.F.);
#956=ORIENTED_EDGE('',*,*,#696,.F.);
#957=ORIENTED_EDGE('',*,*,#686,.T.);
#958=ORIENTED_EDGE('',*,*,#577,.F.);
#959=ORIENTED_EDGE('',*,*,#595,.F.);
#960=ORIENTED_EDGE('',*,*,#644,.T.);
#961=ORIENTED_EDGE('',*,*,#648,.T.);
#962=ORIENTED_EDGE('',*,*,#639,.F.);
#963=ORIENTED_EDGE('',*,*,#582,.F.);
#964=ORIENTED_EDGE('',*,*,#579,.F.);
#965=ORIENTED_EDGE('',*,*,#617,.T.);
#966=ORIENTED_EDGE('',*,*,#613,.T.);
#967=ORIENTED_EDGE('',*,*,#616,.T.);
#968=ORIENTED_EDGE('',*,*,#585,.F.);
#969=ORIENTED_EDGE('',*,*,#687,.T.);
#970=ORIENTED_EDGE('',*,*,#696,.T.);
#971=ORIENTED_EDGE('',*,*,#679,.F.);
#972=ORIENTED_EDGE('',*,*,#693,.F.);
#973=ORIENTED_EDGE('',*,*,#697,.T.);
#974=ORIENTED_EDGE('',*,*,#698,.T.);
#975=ORIENTED_EDGE('',*,*,#699,.T.);
#976=ORIENTED_EDGE('',*,*,#700,.T.);
#977=ORIENTED_EDGE('',*,*,#701,.F.);
#978=ORIENTED_EDGE('',*,*,#702,.T.);
#979=ORIENTED_EDGE('',*,*,#698,.F.);
#980=ORIENTED_EDGE('',*,*,#703,.T.);
#981=ORIENTED_EDGE('',*,*,#701,.T.);
#982=ORIENTED_EDGE('',*,*,#702,.F.);
#983=ORIENTED_EDGE('',*,*,#704,.F.);
#984=ORIENTED_EDGE('',*,*,#705,.F.);
#985=ORIENTED_EDGE('',*,*,#706,.F.);
#986=ORIENTED_EDGE('',*,*,#697,.F.);
#987=ORIENTED_EDGE('',*,*,#703,.F.);
#988=ORIENTED_EDGE('',*,*,#707,.T.);
#989=ORIENTED_EDGE('',*,*,#708,.T.);
#990=ORIENTED_EDGE('',*,*,#709,.T.);
#991=ORIENTED_EDGE('',*,*,#705,.T.);
#992=ORIENTED_EDGE('',*,*,#708,.F.);
#993=ORIENTED_EDGE('',*,*,#710,.F.);
#994=ORIENTED_EDGE('',*,*,#699,.F.);
#995=ORIENTED_EDGE('',*,*,#706,.T.);
#996=ORIENTED_EDGE('',*,*,#709,.F.);
#997=ORIENTED_EDGE('',*,*,#710,.T.);
#998=ORIENTED_EDGE('',*,*,#707,.F.);
#999=ORIENTED_EDGE('',*,*,#704,.T.);
#1000=ORIENTED_EDGE('',*,*,#700,.F.);
#1001=ORIENTED_EDGE('',*,*,#711,.T.);
#1002=ORIENTED_EDGE('',*,*,#677,.T.);
#1003=ORIENTED_EDGE('',*,*,#711,.F.);
#1004=CYLINDRICAL_SURFACE('',#1095,10.);
#1005=CYLINDRICAL_SURFACE('',#1098,10.);
#1006=CYLINDRICAL_SURFACE('',#1101,10.);
#1007=CYLINDRICAL_SURFACE('',#1104,10.);
#1008=CYLINDRICAL_SURFACE('',#1125,0.499999999999999);
#1009=CYLINDRICAL_SURFACE('',#1128,0.499999999999999);
#1010=CYLINDRICAL_SURFACE('',#1131,0.5);
#1011=CYLINDRICAL_SURFACE('',#1134,0.5);
#1012=CYLINDRICAL_SURFACE('',#1137,0.5);
#1013=CYLINDRICAL_SURFACE('',#1150,1.7);
#1014=CYLINDRICAL_SURFACE('',#1154,1.7);
#1015=CYLINDRICAL_SURFACE('',#1158,1.7);
#1016=CYLINDRICAL_SURFACE('',#1162,1.7);
#1017=CYLINDRICAL_SURFACE('',#1164,11.);
#1018=CYLINDRICAL_SURFACE('',#1191,2.5);
#1019=ADVANCED_FACE('',(#81),#1004,.T.);
#1020=ADVANCED_FACE('',(#82),#1005,.T.);
#1021=ADVANCED_FACE('',(#83),#1006,.T.);
#1022=ADVANCED_FACE('',(#84),#1007,.T.);
#1023=ADVANCED_FACE('',(#85),#39,.T.);
#1024=ADVANCED_FACE('',(#86),#40,.T.);
#1025=ADVANCED_FACE('',(#87),#41,.T.);
#1026=ADVANCED_FACE('',(#88),#42,.T.);
#1027=ADVANCED_FACE('',(#89),#43,.T.);
#1028=ADVANCED_FACE('',(#90),#44,.T.);
#1029=ADVANCED_FACE('',(#91),#45,.T.);
#1030=ADVANCED_FACE('',(#92),#46,.T.);
#1031=ADVANCED_FACE('',(#93),#47,.T.);
#1032=ADVANCED_FACE('',(#94),#48,.T.);
#1033=ADVANCED_FACE('',(#95),#49,.T.);
#1034=ADVANCED_FACE('',(#96),#50,.T.);
#1035=ADVANCED_FACE('',(#97,#27,#28,#29,#30,#31),#51,.T.);
#1036=ADVANCED_FACE('',(#98),#1008,.T.);
#1037=ADVANCED_FACE('',(#99),#52,.T.);
#1038=ADVANCED_FACE('',(#100),#1009,.T.);
#1039=ADVANCED_FACE('',(#101),#53,.T.);
#1040=ADVANCED_FACE('',(#102),#1010,.T.);
#1041=ADVANCED_FACE('',(#103),#54,.T.);
#1042=ADVANCED_FACE('',(#104),#1011,.T.);
#1043=ADVANCED_FACE('',(#105),#55,.T.);
#1044=ADVANCED_FACE('',(#106),#1012,.T.);
#1045=ADVANCED_FACE('',(#107),#56,.T.);
#1046=ADVANCED_FACE('',(#108),#57,.F.);
#1047=ADVANCED_FACE('',(#109),#58,.F.);
#1048=ADVANCED_FACE('',(#110),#59,.F.);
#1049=ADVANCED_FACE('',(#111),#60,.F.);
#1050=ADVANCED_FACE('',(#112),#61,.F.);
#1051=ADVANCED_FACE('',(#113),#62,.F.);
#1052=ADVANCED_FACE('',(#114),#63,.F.);
#1053=ADVANCED_FACE('',(#115),#64,.F.);
#1054=ADVANCED_FACE('',(#116),#18,.F.);
#1055=ADVANCED_FACE('',(#117),#1013,.F.);
#1056=ADVANCED_FACE('',(#118),#19,.F.);
#1057=ADVANCED_FACE('',(#119),#1014,.F.);
#1058=ADVANCED_FACE('',(#120),#20,.F.);
#1059=ADVANCED_FACE('',(#121),#1015,.F.);
#1060=ADVANCED_FACE('',(#122),#21,.F.);
#1061=ADVANCED_FACE('',(#123),#1016,.F.);
#1062=ADVANCED_FACE('',(#124),#1017,.T.);
#1063=ADVANCED_FACE('',(#125,#32),#65,.T.);
#1064=ADVANCED_FACE('',(#126,#33,#34,#35,#36,#37),#66,.T.);
#1065=ADVANCED_FACE('',(#127),#67,.F.);
#1066=ADVANCED_FACE('',(#128),#68,.T.);
#1067=ADVANCED_FACE('',(#129),#69,.T.);
#1068=ADVANCED_FACE('',(#130),#70,.T.);
#1069=ADVANCED_FACE('',(#131),#71,.T.);
#1070=ADVANCED_FACE('',(#132),#72,.T.);
#1071=ADVANCED_FACE('',(#133),#73,.T.);
#1072=ADVANCED_FACE('',(#134,#38),#74,.T.);
#1073=ADVANCED_FACE('',(#135),#75,.T.);
#1074=ADVANCED_FACE('',(#136),#22,.T.);
#1075=ADVANCED_FACE('',(#137),#76,.T.);
#1076=ADVANCED_FACE('',(#138),#77,.F.);
#1077=ADVANCED_FACE('',(#139),#78,.T.);
#1078=ADVANCED_FACE('',(#140),#79,.T.);
#1079=ADVANCED_FACE('',(#141),#80,.T.);
#1080=ADVANCED_FACE('',(#142),#1018,.T.);
#1081=CLOSED_SHELL('',(#1019,#1020,#1021,#1022,#1023,#1024,#1025,#1026,
#1027,#1028,#1029,#1030,#1031,#1032,#1033,#1034,#1035,#1036,#1037,#1038,
#1039,#1040,#1041,#1042,#1043,#1044,#1045,#1046,#1047,#1048,#1049,#1050,
#1051,#1052,#1053,#1054,#1055,#1056,#1057,#1058,#1059,#1060,#1061,#1062,
#1063,#1064,#1065,#1066,#1067,#1068,#1069,#1070,#1071,#1072,#1073,#1074,
#1075,#1076,#1077,#1078,#1079,#1080));
#1082=DERIVED_UNIT_ELEMENT(#1084,1.);
#1083=DERIVED_UNIT_ELEMENT(#1815,-3.);
#1084=(
MASS_UNIT()
NAMED_UNIT(*)
SI_UNIT(.KILO.,.GRAM.)
);
#1085=DERIVED_UNIT((#1082,#1083));
#1086=MEASURE_REPRESENTATION_ITEM('density measure',
POSITIVE_RATIO_MEASURE(7850.),#1085);
#1087=PROPERTY_DEFINITION_REPRESENTATION(#1092,#1089);
#1088=PROPERTY_DEFINITION_REPRESENTATION(#1093,#1090);
#1089=REPRESENTATION('material name',(#1091),#1812);
#1090=REPRESENTATION('density',(#1086),#1812);
#1091=DESCRIPTIVE_REPRESENTATION_ITEM('Steel','Steel');
#1092=PROPERTY_DEFINITION('material property','material name',#1822);
#1093=PROPERTY_DEFINITION('material property','density of part',#1822);
#1094=AXIS2_PLACEMENT_3D('',#1497,#1192,#1193);
#1095=AXIS2_PLACEMENT_3D('',#1498,#1194,#1195);
#1096=AXIS2_PLACEMENT_3D('',#1501,#1196,#1197);
#1097=AXIS2_PLACEMENT_3D('',#1505,#1199,#1200);
#1098=AXIS2_PLACEMENT_3D('',#1507,#1202,#1203);
#1099=AXIS2_PLACEMENT_3D('',#1510,#1204,#1205);
#1100=AXIS2_PLACEMENT_3D('',#1514,#1207,#1208);
#1101=AXIS2_PLACEMENT_3D('',#1516,#1210,#1211);
#1102=AXIS2_PLACEMENT_3D('',#1519,#1212,#1213);
#1103=AXIS2_PLACEMENT_3D('',#1523,#1215,#1216);
#1104=AXIS2_PLACEMENT_3D('',#1525,#1218,#1219);
#1105=AXIS2_PLACEMENT_3D('',#1528,#1220,#1221);
#1106=AXIS2_PLACEMENT_3D('',#1532,#1223,#1224);
#1107=AXIS2_PLACEMENT_3D('',#1534,#1226,#1227);
#1108=AXIS2_PLACEMENT_3D('',#1540,#1231,#1232);
#1109=AXIS2_PLACEMENT_3D('',#1557,#1241,#1242);
#1110=AXIS2_PLACEMENT_3D('',#1563,#1246,#1247);
#1111=AXIS2_PLACEMENT_3D('',#1569,#1251,#1252);
#1112=AXIS2_PLACEMENT_3D('',#1575,#1256,#1257);
#1113=AXIS2_PLACEMENT_3D('',#1581,#1261,#1262);
#1114=AXIS2_PLACEMENT_3D('',#1587,#1266,#1267);
#1115=AXIS2_PLACEMENT_3D('',#1590,#1270,#1271);
#1116=AXIS2_PLACEMENT_3D('',#1596,#1275,#1276);
#1117=AXIS2_PLACEMENT_3D('',#1602,#1280,#1281);
#1118=AXIS2_PLACEMENT_3D('',#1604,#1283,#1284);
#1119=AXIS2_PLACEMENT_3D('',#1606,#1286,#1287);
#1120=AXIS2_PLACEMENT_3D('',#1608,#1288,#1289);
#1121=AXIS2_PLACEMENT_3D('',#1610,#1290,#1291);
#1122=AXIS2_PLACEMENT_3D('',#1612,#1292,#1293);
#1123=AXIS2_PLACEMENT_3D('',#1614,#1294,#1295);
#1124=AXIS2_PLACEMENT_3D('',#1616,#1296,#1297);
#1125=AXIS2_PLACEMENT_3D('',#1617,#1298,#1299);
#1126=AXIS2_PLACEMENT_3D('',#1619,#1300,#1301);
#1127=AXIS2_PLACEMENT_3D('',#1621,#1303,#1304);
#1128=AXIS2_PLACEMENT_3D('',#1622,#1305,#1306);
#1129=AXIS2_PLACEMENT_3D('',#1624,#1307,#1308);
#1130=AXIS2_PLACEMENT_3D('',#1626,#1310,#1311);
#1131=AXIS2_PLACEMENT_3D('',#1627,#1312,#1313);
#1132=AXIS2_PLACEMENT_3D('',#1629,#1314,#1315);
#1133=AXIS2_PLACEMENT_3D('',#1631,#1317,#1318);
#1134=AXIS2_PLACEMENT_3D('',#1632,#1319,#1320);
#1135=AXIS2_PLACEMENT_3D('',#1634,#1321,#1322);
#1136=AXIS2_PLACEMENT_3D('',#1636,#1324,#1325);
#1137=AXIS2_PLACEMENT_3D('',#1637,#1326,#1327);
#1138=AXIS2_PLACEMENT_3D('',#1639,#1328,#1329);
#1139=AXIS2_PLACEMENT_3D('',#1641,#1331,#1332);
#1140=AXIS2_PLACEMENT_3D('',#1642,#1333,#1334);
#1141=AXIS2_PLACEMENT_3D('',#1648,#1338,#1339);
#1142=AXIS2_PLACEMENT_3D('',#1654,#1343,#1344);
#1143=AXIS2_PLACEMENT_3D('',#1660,#1348,#1349);
#1144=AXIS2_PLACEMENT_3D('',#1666,#1353,#1354);
#1145=AXIS2_PLACEMENT_3D('',#1671,#1359,#1360);
#1146=AXIS2_PLACEMENT_3D('',#1677,#1364,#1365);
#1147=AXIS2_PLACEMENT_3D('',#1683,#1369,#1370);
#1148=AXIS2_PLACEMENT_3D('',#1689,#1374,#1375);
#1149=AXIS2_PLACEMENT_3D('',#1691,#1376,#1377);
#1150=AXIS2_PLACEMENT_3D('',#1694,#1379,#1380);
#1151=AXIS2_PLACEMENT_3D('',#1696,#1381,#1382);
#1152=AXIS2_PLACEMENT_3D('',#1698,#1384,#1385);
#1153=AXIS2_PLACEMENT_3D('',#1700,#1386,#1387);
#1154=AXIS2_PLACEMENT_3D('',#1703,#1389,#1390);
#1155=AXIS2_PLACEMENT_3D('',#1705,#1391,#1392);
#1156=AXIS2_PLACEMENT_3D('',#1707,#1394,#1395);
#1157=AXIS2_PLACEMENT_3D('',#1709,#1396,#1397);
#1158=AXIS2_PLACEMENT_3D('',#1712,#1399,#1400);
#1159=AXIS2_PLACEMENT_3D('',#1714,#1401,#1402);
#1160=AXIS2_PLACEMENT_3D('',#1716,#1404,#1405);
#1161=AXIS2_PLACEMENT_3D('',#1718,#1406,#1407);
#1162=AXIS2_PLACEMENT_3D('',#1721,#1409,#1410);
#1163=AXIS2_PLACEMENT_3D('',#1723,#1411,#1412);
#1164=AXIS2_PLACEMENT_3D('',#1725,#1414,#1415);
#1165=AXIS2_PLACEMENT_3D('',#1727,#1416,#1417);
#1166=AXIS2_PLACEMENT_3D('',#1730,#1419,#1420);
#1167=AXIS2_PLACEMENT_3D('',#1731,#1421,#1422);
#1168=AXIS2_PLACEMENT_3D('',#1733,#1423,#1424);
#1169=AXIS2_PLACEMENT_3D('',#1734,#1425,#1426);
#1170=AXIS2_PLACEMENT_3D('',#1751,#1435,#1436);
#1171=AXIS2_PLACEMENT_3D('',#1757,#1440,#1441);
#1172=AXIS2_PLACEMENT_3D('',#1760,#1444,#1445);
#1173=AXIS2_PLACEMENT_3D('',#1762,#1447,#1448);
#1174=AXIS2_PLACEMENT_3D('',#1764,#1450,#1451);
#1175=AXIS2_PLACEMENT_3D('',#1766,#1453,#1454);
#1176=AXIS2_PLACEMENT_3D('',#1768,#1456,#1457);
#1177=AXIS2_PLACEMENT_3D('',#1770,#1459,#1460);
#1178=AXIS2_PLACEMENT_3D('',#1772,#1462,#1463);
#1179=AXIS2_PLACEMENT_3D('',#1773,#1464,#1465);
#1180=AXIS2_PLACEMENT_3D('',#1776,#1466,#1467);
#1181=AXIS2_PLACEMENT_3D('',#1783,#1468,#1469);
#1182=AXIS2_PLACEMENT_3D('',#1785,#1470,#1471);
#1183=AXIS2_PLACEMENT_3D('',#1790,#1472,#1473);
#1184=AXIS2_PLACEMENT_3D('',#1793,#1476,#1477);
#1185=AXIS2_PLACEMENT_3D('',#1799,#1481,#1482);
#1186=AXIS2_PLACEMENT_3D('',#1800,#1483,#1484);
#1187=AXIS2_PLACEMENT_3D('',#1802,#1485,#1486);
#1188=AXIS2_PLACEMENT_3D('',#1805,#1488,#1489);
#1189=AXIS2_PLACEMENT_3D('',#1806,#1490,#1491);
#1190=AXIS2_PLACEMENT_3D('',#1807,#1492,#1493);
#1191=AXIS2_PLACEMENT_3D('',#1808,#1494,#1495);
#1192=DIRECTION('axis',(0.,0.,1.));
#1193=DIRECTION('refdir',(1.,0.,0.));
#1194=DIRECTION('center_axis',(0.,1.,0.));
#1195=DIRECTION('ref_axis',(0.707106781186547,0.,-0.707106781186547));
#1196=DIRECTION('center_axis',(0.,1.,0.));
#1197=DIRECTION('ref_axis',(0.707106781186547,0.,-0.707106781186547));
#1198=DIRECTION('',(0.,-1.,0.));
#1199=DIRECTION('center_axis',(0.,-1.,0.));
#1200=DIRECTION('ref_axis',(0.707106781186547,0.,-0.707106781186547));
#1201=DIRECTION('',(0.,1.,0.));
#1202=DIRECTION('center_axis',(0.,1.,0.));
#1203=DIRECTION('ref_axis',(-0.707106781186547,0.,-0.707106781186548));
#1204=DIRECTION('center_axis',(0.,1.,0.));
#1205=DIRECTION('ref_axis',(-0.707106781186547,0.,-0.707106781186548));
#1206=DIRECTION('',(0.,-1.,0.));
#1207=DIRECTION('center_axis',(0.,-1.,0.));
#1208=DIRECTION('ref_axis',(-0.707106781186547,0.,-0.707106781186548));
#1209=DIRECTION('',(0.,1.,0.));
#1210=DIRECTION('center_axis',(0.,1.,0.));
#1211=DIRECTION('ref_axis',(-0.707106781186548,0.,0.707106781186547));
#1212=DIRECTION('center_axis',(0.,1.,0.));
#1213=DIRECTION('ref_axis',(-0.707106781186548,0.,0.707106781186547));
#1214=DIRECTION('',(0.,-1.,0.));
#1215=DIRECTION('center_axis',(0.,-1.,0.));
#1216=DIRECTION('ref_axis',(-0.707106781186548,0.,0.707106781186547));
#1217=DIRECTION('',(0.,1.,0.));
#1218=DIRECTION('center_axis',(0.,1.,0.));
#1219=DIRECTION('ref_axis',(0.707106781186547,0.,0.707106781186547));
#1220=DIRECTION('center_axis',(0.,1.,0.));
#1221=DIRECTION('ref_axis',(0.707106781186547,0.,0.707106781186547));
#1222=DIRECTION('',(0.,-1.,0.));
#1223=DIRECTION('center_axis',(0.,-1.,0.));
#1224=DIRECTION('ref_axis',(0.707106781186547,0.,0.707106781186547));
#1225=DIRECTION('',(0.,1.,0.));
#1226=DIRECTION('center_axis',(0.,1.,0.));
#1227=DIRECTION('ref_axis',(0.,0.,1.));
#1228=DIRECTION('',(1.,0.,0.));
#1229=DIRECTION('',(0.707106781186547,0.,-0.707106781186548));
#1230=DIRECTION('',(0.,0.,-1.));
#1231=DIRECTION('center_axis',(0.,1.,0.));
#1232=DIRECTION('ref_axis',(0.,0.,1.));
#1233=DIRECTION('',(-1.,0.,0.));
#1234=DIRECTION('',(0.,0.,1.));
#1235=DIRECTION('',(-1.,0.,0.));
#1236=DIRECTION('',(0.,0.,1.));
#1237=DIRECTION('',(-1.,0.,0.));
#1238=DIRECTION('',(0.,0.,1.));
#1239=DIRECTION('',(-1.,0.,0.));
#1240=DIRECTION('',(0.,0.,1.));
#1241=DIRECTION('center_axis',(0.,1.,0.));
#1242=DIRECTION('ref_axis',(0.,0.,1.));
#1243=DIRECTION('',(-4.19942515224645E-16,0.,1.));
#1244=DIRECTION('',(0.707106781186548,0.,0.707106781186547));
#1245=DIRECTION('',(1.,0.,0.));
#1246=DIRECTION('center_axis',(0.,1.,0.));
#1247=DIRECTION('ref_axis',(0.,0.,1.));
#1248=DIRECTION('',(-1.,0.,0.));
#1249=DIRECTION('',(-0.707106781186547,0.,0.707106781186548));
#1250=DIRECTION('',(-4.19942515224645E-16,0.,1.));
#1251=DIRECTION('center_axis',(0.,1.,0.));
#1252=DIRECTION('ref_axis',(0.,0.,1.));
#1253=DIRECTION('',(0.,0.,-1.));
#1254=DIRECTION('',(-0.707106781186548,0.,-0.707106781186547));
#1255=DIRECTION('',(-1.,0.,0.));
#1256=DIRECTION('center_axis',(-1.,0.,0.));
#1257=DIRECTION('ref_axis',(0.,-1.,0.));
#1258=DIRECTION('',(0.,1.,0.));
#1259=DIRECTION('',(0.,0.,1.));
#1260=DIRECTION('',(0.,-1.,0.));
#1261=DIRECTION('center_axis',(0.,1.,0.));
#1262=DIRECTION('ref_axis',(-1.,0.,0.));
#1263=DIRECTION('',(1.,0.,0.));
#1264=DIRECTION('',(0.,0.,1.));
#1265=DIRECTION('',(-1.,0.,0.));
#1266=DIRECTION('center_axis',(1.,0.,0.));
#1267=DIRECTION('ref_axis',(0.,1.,0.));
#1268=DIRECTION('',(0.,-1.,0.));
#1269=DIRECTION('',(0.,1.,0.));
#1270=DIRECTION('center_axis',(0.,0.,1.));
#1271=DIRECTION('ref_axis',(1.,0.,0.));
#1272=DIRECTION('',(0.,-1.,0.));
#1273=DIRECTION('',(1.,0.,0.));
#1274=DIRECTION('',(0.,1.,0.));
#1275=DIRECTION('center_axis',(0.,-1.,0.));
#1276=DIRECTION('ref_axis',(1.,0.,0.));
#1277=DIRECTION('',(-1.,0.,0.));
#1278=DIRECTION('',(0.,0.,1.));
#1279=DIRECTION('',(0.,0.,1.));
#1280=DIRECTION('center_axis',(-1.,0.,0.));
#1281=DIRECTION('ref_axis',(0.,-1.,0.));
#1282=DIRECTION('',(0.,1.,0.));
#1283=DIRECTION('center_axis',(1.,0.,0.));
#1284=DIRECTION('ref_axis',(0.,1.,0.));
#1285=DIRECTION('',(0.,-1.,0.));
#1286=DIRECTION('center_axis',(0.,0.,1.));
#1287=DIRECTION('ref_axis',(1.,0.,0.));
#1288=DIRECTION('center_axis',(0.,0.,1.));
#1289=DIRECTION('ref_axis',(1.,0.,0.));
#1290=DIRECTION('center_axis',(0.,0.,1.));
#1291=DIRECTION('ref_axis',(1.,0.,0.));
#1292=DIRECTION('center_axis',(0.,0.,1.));
#1293=DIRECTION('ref_axis',(1.,0.,0.));
#1294=DIRECTION('center_axis',(0.,0.,1.));
#1295=DIRECTION('ref_axis',(1.,0.,0.));
#1296=DIRECTION('center_axis',(0.,0.,1.));
#1297=DIRECTION('ref_axis',(1.,0.,0.));
#1298=DIRECTION('center_axis',(0.,0.,1.));
#1299=DIRECTION('ref_axis',(1.,0.,0.));
#1300=DIRECTION('center_axis',(0.,0.,1.));
#1301=DIRECTION('ref_axis',(1.,0.,0.));
#1302=DIRECTION('',(0.,0.,-1.));
#1303=DIRECTION('center_axis',(0.,0.,1.));
#1304=DIRECTION('ref_axis',(1.,0.,0.));
#1305=DIRECTION('center_axis',(0.,0.,1.));
#1306=DIRECTION('ref_axis',(1.,0.,0.));
#1307=DIRECTION('center_axis',(0.,0.,1.));
#1308=DIRECTION('ref_axis',(1.,0.,0.));
#1309=DIRECTION('',(0.,0.,-1.));
#1310=DIRECTION('center_axis',(0.,0.,1.));
#1311=DIRECTION('ref_axis',(1.,0.,0.));
#1312=DIRECTION('center_axis',(0.,0.,1.));
#1313=DIRECTION('ref_axis',(1.,0.,0.));
#1314=DIRECTION('center_axis',(0.,0.,1.));
#1315=DIRECTION('ref_axis',(1.,0.,0.));
#1316=DIRECTION('',(0.,0.,-1.));
#1317=DIRECTION('center_axis',(0.,0.,1.));
#1318=DIRECTION('ref_axis',(1.,0.,0.));
#1319=DIRECTION('center_axis',(0.,0.,1.));
#1320=DIRECTION('ref_axis',(1.,0.,0.));
#1321=DIRECTION('center_axis',(0.,0.,1.));
#1322=DIRECTION('ref_axis',(1.,0.,0.));
#1323=DIRECTION('',(0.,0.,-1.));
#1324=DIRECTION('center_axis',(0.,0.,1.));
#1325=DIRECTION('ref_axis',(1.,0.,0.));
#1326=DIRECTION('center_axis',(0.,0.,1.));
#1327=DIRECTION('ref_axis',(1.,0.,0.));
#1328=DIRECTION('center_axis',(0.,0.,1.));
#1329=DIRECTION('ref_axis',(1.,0.,0.));
#1330=DIRECTION('',(0.,0.,-1.));
#1331=DIRECTION('center_axis',(0.,0.,1.));
#1332=DIRECTION('ref_axis',(1.,0.,0.));
#1333=DIRECTION('center_axis',(-0.707106781186547,0.,0.707106781186548));
#1334=DIRECTION('ref_axis',(-0.707106781186548,0.,-0.707106781186547));
#1335=DIRECTION('',(0.,-1.,0.));
#1336=DIRECTION('',(-0.707106781186548,0.,-0.707106781186547));
#1337=DIRECTION('',(0.,-1.,0.));
#1338=DIRECTION('center_axis',(0.707106781186548,0.,0.707106781186547));
#1339=DIRECTION('ref_axis',(-0.707106781186547,0.,0.707106781186548));
#1340=DIRECTION('',(0.,-1.,0.));
#1341=DIRECTION('',(-0.707106781186547,0.,0.707106781186548));
#1342=DIRECTION('',(0.,-1.,0.));
#1343=DIRECTION('center_axis',(-0.707106781186548,0.,-0.707106781186547));
#1344=DIRECTION('ref_axis',(0.707106781186547,0.,-0.707106781186548));
#1345=DIRECTION('',(0.,-1.,0.));
#1346=DIRECTION('',(0.707106781186547,0.,-0.707106781186548));
#1347=DIRECTION('',(0.,-1.,0.));
#1348=DIRECTION('center_axis',(0.707106781186547,0.,-0.707106781186548));
#1349=DIRECTION('ref_axis',(0.707106781186548,0.,0.707106781186547));
#1350=DIRECTION('',(0.,-1.,0.));
#1351=DIRECTION('',(0.707106781186548,0.,0.707106781186547));
#1352=DIRECTION('',(0.,-1.,0.));
#1353=DIRECTION('center_axis',(0.,1.,0.));
#1354=DIRECTION('ref_axis',(0.,0.,1.));
#1355=DIRECTION('',(-4.19942515224645E-16,0.,1.));
#1356=DIRECTION('',(-1.,0.,0.));
#1357=DIRECTION('',(0.,0.,-1.));
#1358=DIRECTION('',(1.,0.,0.));
#1359=DIRECTION('center_axis',(0.,1.,0.));
#1360=DIRECTION('ref_axis',(0.,0.,1.));
#1361=DIRECTION('',(0.,0.,-1.));
#1362=DIRECTION('',(0.707106781186547,0.,-0.707106781186548));
#1363=DIRECTION('',(1.,0.,0.));
#1364=DIRECTION('center_axis',(0.,1.,0.));
#1365=DIRECTION('ref_axis',(0.,0.,1.));
#1366=DIRECTION('',(-1.,0.,0.));
#1367=DIRECTION('',(-0.707106781186548,0.,-0.707106781186547));
#1368=DIRECTION('',(0.,0.,-1.));
#1369=DIRECTION('center_axis',(0.,1.,0.));
#1370=DIRECTION('ref_axis',(0.,0.,1.));
#1371=DIRECTION('',(-4.19942515224645E-16,0.,1.));
#1372=DIRECTION('',(-0.707106781186547,0.,0.707106781186548));
#1373=DIRECTION('',(-1.,0.,0.));
#1374=DIRECTION('center_axis',(0.,1.,0.));
#1375=DIRECTION('ref_axis',(0.,0.,1.));
#1376=DIRECTION('center_axis',(0.,-1.,0.));
#1377=DIRECTION('ref_axis',(0.,0.,1.));
#1378=DIRECTION('',(-1.04972719113862E-16,-0.515038074910054,0.857167300702112));
#1379=DIRECTION('center_axis',(0.,-1.,0.));
#1380=DIRECTION('ref_axis',(0.,0.,1.));
#1381=DIRECTION('center_axis',(0.,-1.,0.));
#1382=DIRECTION('ref_axis',(0.,0.,1.));
#1383=DIRECTION('',(0.,-1.,0.));
#1384=DIRECTION('center_axis',(0.,1.,0.));
#1385=DIRECTION('ref_axis',(0.,0.,1.));
#1386=DIRECTION('center_axis',(0.,-1.,0.));
#1387=DIRECTION('ref_axis',(0.,0.,1.));
#1388=DIRECTION('',(-1.04972719113862E-16,-0.515038074910054,0.857167300702112));
#1389=DIRECTION('center_axis',(0.,-1.,0.));
#1390=DIRECTION('ref_axis',(0.,0.,1.));
#1391=DIRECTION('center_axis',(0.,-1.,0.));
#1392=DIRECTION('ref_axis',(0.,0.,1.));
#1393=DIRECTION('',(0.,-1.,0.));
#1394=DIRECTION('center_axis',(0.,1.,0.));
#1395=DIRECTION('ref_axis',(0.,0.,1.));
#1396=DIRECTION('center_axis',(0.,-1.,0.));
#1397=DIRECTION('ref_axis',(0.,0.,1.));
#1398=DIRECTION('',(-1.04972719113862E-16,-0.515038074910054,0.857167300702112));
#1399=DIRECTION('center_axis',(0.,-1.,0.));
#1400=DIRECTION('ref_axis',(0.,0.,1.));
#1401=DIRECTION('center_axis',(0.,-1.,0.));
#1402=DIRECTION('ref_axis',(0.,0.,1.));
#1403=DIRECTION('',(0.,-1.,0.));
#1404=DIRECTION('center_axis',(0.,1.,0.));
#1405=DIRECTION('ref_axis',(0.,0.,1.));
#1406=DIRECTION('center_axis',(0.,-1.,0.));
#1407=DIRECTION('ref_axis',(0.,0.,1.));
#1408=DIRECTION('',(-1.04972719113862E-16,-0.515038074910054,0.857167300702112));
#1409=DIRECTION('center_axis',(0.,-1.,0.));
#1410=DIRECTION('ref_axis',(0.,0.,1.));
#1411=DIRECTION('center_axis',(0.,-1.,0.));
#1412=DIRECTION('ref_axis',(0.,0.,1.));
#1413=DIRECTION('',(0.,-1.,0.));
#1414=DIRECTION('center_axis',(0.,1.,0.));
#1415=DIRECTION('ref_axis',(-1.,0.,0.));
#1416=DIRECTION('center_axis',(0.,1.,0.));
#1417=DIRECTION('ref_axis',(-1.,0.,0.));
#1418=DIRECTION('',(0.,-1.,0.));
#1419=DIRECTION('center_axis',(0.,-1.,0.));
#1420=DIRECTION('ref_axis',(-1.,0.,0.));
#1421=DIRECTION('center_axis',(0.,1.,0.));
#1422=DIRECTION('ref_axis',(-1.,0.,0.));
#1423=DIRECTION('center_axis',(0.,1.,0.));
#1424=DIRECTION('ref_axis',(2.22044604925031E-16,0.,-1.));
#1425=DIRECTION('center_axis',(0.,1.,0.));
#1426=DIRECTION('ref_axis',(0.,0.,1.));
#1427=DIRECTION('',(-4.19942515224645E-16,0.,1.));
#1428=DIRECTION('',(0.707106781186548,0.,0.707106781186547));
#1429=DIRECTION('',(1.,0.,0.));
#1430=DIRECTION('',(0.707106781186547,0.,-0.707106781186548));
#1431=DIRECTION('',(0.,0.,-1.));
#1432=DIRECTION('',(-0.707106781186548,0.,-0.707106781186547));
#1433=DIRECTION('',(-1.,0.,0.));
#1434=DIRECTION('',(-0.707106781186547,0.,0.707106781186548));
#1435=DIRECTION('center_axis',(0.,1.,0.));
#1436=DIRECTION('ref_axis',(0.,0.,1.));
#1437=DIRECTION('',(1.,0.,0.));
#1438=DIRECTION('',(0.707106781186548,0.,0.707106781186547));
#1439=DIRECTION('',(-4.19942515224645E-16,0.,1.));
#1440=DIRECTION('center_axis',(0.707106781186547,0.,-0.707106781186548));
#1441=DIRECTION('ref_axis',(-0.707106781186548,0.,-0.707106781186547));
#1442=DIRECTION('',(0.,1.,0.));
#1443=DIRECTION('',(0.,1.,0.));
#1444=DIRECTION('center_axis',(0.,0.,-1.));
#1445=DIRECTION('ref_axis',(-1.,0.,0.));
#1446=DIRECTION('',(0.,1.,0.));
#1447=DIRECTION('center_axis',(-0.707106781186548,0.,-0.707106781186547));
#1448=DIRECTION('ref_axis',(-0.707106781186547,0.,0.707106781186548));
#1449=DIRECTION('',(0.,1.,0.));
#1450=DIRECTION('center_axis',(-1.,0.,-4.19942515224645E-16));
#1451=DIRECTION('ref_axis',(-4.19942515224645E-16,0.,1.));
#1452=DIRECTION('',(0.,1.,0.));
#1453=DIRECTION('center_axis',(1.,0.,0.));
#1454=DIRECTION('ref_axis',(0.,0.,-1.));
#1455=DIRECTION('',(0.,1.,0.));
#1456=DIRECTION('center_axis',(0.707106781186548,0.,0.707106781186547));
#1457=DIRECTION('ref_axis',(0.707106781186547,0.,-0.707106781186548));
#1458=DIRECTION('',(0.,1.,0.));
#1459=DIRECTION('center_axis',(0.,0.,1.));
#1460=DIRECTION('ref_axis',(1.,0.,0.));
#1461=DIRECTION('',(0.,1.,0.));
#1462=DIRECTION('center_axis',(-0.707106781186547,0.,0.707106781186548));
#1463=DIRECTION('ref_axis',(0.707106781186548,0.,0.707106781186547));
#1464=DIRECTION('center_axis',(0.,-1.,0.));
#1465=DIRECTION('ref_axis',(-1.,0.,-7.27366154732461E-16));
#1466=DIRECTION('center_axis',(0.,-1.,0.));
#1467=DIRECTION('ref_axis',(2.22044604925031E-16,0.,-1.));
#1468=DIRECTION('center_axis',(0.,1.,0.));
#1469=DIRECTION('ref_axis',(2.22044604925031E-16,0.,-1.));
#1470=DIRECTION('center_axis',(0.,1.,0.));
#1471=DIRECTION('ref_axis',(2.22044604925031E-16,0.,-1.));
#1472=DIRECTION('center_axis',(0.707106781186553,0.707106781186543,2.42664811820733E-16));
#1473=DIRECTION('ref_axis',(3.43179867987593E-16,0.,-1.));
#1474=DIRECTION('',(3.43179867987593E-16,0.,-1.));
#1475=DIRECTION('',(-3.43179867987593E-16,0.,1.));
#1476=DIRECTION('center_axis',(-1.,0.,-3.43179867987593E-16));
#1477=DIRECTION('ref_axis',(3.43179867987593E-16,0.,-1.));
#1478=DIRECTION('',(0.,1.,0.));
#1479=DIRECTION('',(-3.43179867987593E-16,0.,1.));
#1480=DIRECTION('',(0.,-1.,0.));
#1481=DIRECTION('center_axis',(0.,1.,0.));
#1482=DIRECTION('ref_axis',(2.22044604925031E-16,0.,-1.));
#1483=DIRECTION('center_axis',(0.707106781186546,0.707106781186549,2.42664811820731E-16));
#1484=DIRECTION('ref_axis',(3.43179867987593E-16,0.,-1.));
#1485=DIRECTION('center_axis',(0.707106781186546,0.707106781186549,2.42664811820731E-16));
#1486=DIRECTION('ref_axis',(-0.707106781186549,0.707106781186546,-1.57009245868378E-16));
#1487=DIRECTION('',(3.43179867987593E-16,0.,-1.));
#1488=DIRECTION('center_axis',(0.707106781186546,0.707106781186549,2.42664811820731E-16));
#1489=DIRECTION('ref_axis',(-0.707106781186549,0.707106781186546,-1.57009245868378E-16));
#1490=DIRECTION('center_axis',(0.,1.,0.));
#1491=DIRECTION('ref_axis',(2.22044604925031E-16,0.,-1.));
#1492=DIRECTION('center_axis',(0.,-1.,0.));
#1493=DIRECTION('ref_axis',(2.22044604925031E-16,0.,-1.));
#1494=DIRECTION('center_axis',(0.,1.,0.));
#1495=DIRECTION('ref_axis',(2.22044604925031E-16,0.,-1.));
#1496=DIRECTION('',(0.,-1.,0.));
#1497=CARTESIAN_POINT('',(0.,0.,0.));
#1498=CARTESIAN_POINT('Origin',(11.15,0.,-11.15));
#1499=CARTESIAN_POINT('',(21.15,9.,-11.15));
#1500=CARTESIAN_POINT('',(11.15,9.,-21.15));
#1501=CARTESIAN_POINT('Origin',(11.15,9.,-11.15));
#1502=CARTESIAN_POINT('',(21.15,-9.,-11.15));
#1503=CARTESIAN_POINT('',(21.15,0.,-11.15));
#1504=CARTESIAN_POINT('',(11.15,-9.,-21.15));
#1505=CARTESIAN_POINT('Origin',(11.15,-9.,-11.15));
#1506=CARTESIAN_POINT('',(11.15,0.,-21.15));
#1507=CARTESIAN_POINT('Origin',(-11.15,0.,-11.15));
#1508=CARTESIAN_POINT('',(-11.15,9.,-21.15));
#1509=CARTESIAN_POINT('',(-21.15,9.,-11.15));
#1510=CARTESIAN_POINT('Origin',(-11.15,9.,-11.15));
#1511=CARTESIAN_POINT('',(-11.15,-9.,-21.15));
#1512=CARTESIAN_POINT('',(-11.15,0.,-21.15));
#1513=CARTESIAN_POINT('',(-21.15,-9.,-11.15));
#1514=CARTESIAN_POINT('Origin',(-11.15,-9.,-11.15));
#1515=CARTESIAN_POINT('',(-21.15,0.,-11.15));
#1516=CARTESIAN_POINT('Origin',(-11.15,0.,11.15));
#1517=CARTESIAN_POINT('',(-21.15,9.,11.15));
#1518=CARTESIAN_POINT('',(-11.15,9.,21.15));
#1519=CARTESIAN_POINT('Origin',(-11.15,9.,11.15));
#1520=CARTESIAN_POINT('',(-21.15,-9.,11.15));
#1521=CARTESIAN_POINT('',(-21.15,0.,11.15));
#1522=CARTESIAN_POINT('',(-11.15,-9.,21.15));
#1523=CARTESIAN_POINT('Origin',(-11.15,-9.,11.15));
#1524=CARTESIAN_POINT('',(-11.15,0.,21.15));
#1525=CARTESIAN_POINT('Origin',(11.15,0.,11.15));
#1526=CARTESIAN_POINT('',(11.15,9.,21.15));
#1527=CARTESIAN_POINT('',(21.15,9.,11.15));
#1528=CARTESIAN_POINT('Origin',(11.15,9.,11.15));
#1529=CARTESIAN_POINT('',(11.15,-9.,21.15));
#1530=CARTESIAN_POINT('',(11.15,0.,21.15));
#1531=CARTESIAN_POINT('',(21.15,-9.,11.15));
#1532=CARTESIAN_POINT('Origin',(11.15,-9.,11.15));
#1533=CARTESIAN_POINT('',(21.15,0.,11.15));
#1534=CARTESIAN_POINT('Origin',(-4.44089209850063E-15,-9.,4.44089209850063E-15));
#1535=CARTESIAN_POINT('',(15.5,-9.,21.15));
#1536=CARTESIAN_POINT('',(-7.75,-9.,21.15));
#1537=CARTESIAN_POINT('',(21.15,-9.,15.5));
#1538=CARTESIAN_POINT('',(16.9125,-9.,19.7375));
#1539=CARTESIAN_POINT('',(21.15,-9.,7.75000000000001));
#1540=CARTESIAN_POINT('Origin',(-4.44089209850063E-15,-9.,4.44089209850063E-15));
#1541=CARTESIAN_POINT('',(10.,-9.00000017881393,21.15));
#1542=CARTESIAN_POINT('',(-10.,-9.00000017881393,21.15));
#1543=CARTESIAN_POINT('',(-10.575,-9.,21.15));
#1544=CARTESIAN_POINT('',(-10.,-9.00000017881393,26.15));
#1545=CARTESIAN_POINT('',(-10.,-9.00000017881393,21.15));
#1546=CARTESIAN_POINT('',(-9.,-9.00000017881393,26.15));
#1547=CARTESIAN_POINT('',(10.,-9.00000017881393,26.15));
#1548=CARTESIAN_POINT('',(-9.,-9.00000017881393,22.15));
#1549=CARTESIAN_POINT('',(-9.,-9.00000017881393,21.15));
#1550=CARTESIAN_POINT('',(9.,-9.00000017881393,22.15));
#1551=CARTESIAN_POINT('',(10.,-9.00000017881393,22.15));
#1552=CARTESIAN_POINT('',(9.,-9.00000017881393,26.15));
#1553=CARTESIAN_POINT('',(9.,-9.00000017881393,21.15));
#1554=CARTESIAN_POINT('',(10.,-9.00000017881393,26.15));
#1555=CARTESIAN_POINT('',(10.,-9.00000017881393,26.15));
#1556=CARTESIAN_POINT('',(10.,-9.00000017881393,21.15));
#1557=CARTESIAN_POINT('Origin',(-4.44089209850063E-15,-9.,4.44089209850063E-15));
#1558=CARTESIAN_POINT('',(-21.15,-9.,15.5));
#1559=CARTESIAN_POINT('',(-21.15,-9.,-7.75));
#1560=CARTESIAN_POINT('',(-15.5,-9.,21.15));
#1561=CARTESIAN_POINT('',(-19.7375,-9.,16.9125));
#1562=CARTESIAN_POINT('',(-7.75,-9.,21.15));
#1563=CARTESIAN_POINT('Origin',(-4.44089209850063E-15,-9.,4.44089209850063E-15));
#1564=CARTESIAN_POINT('',(-15.5,-9.,-21.15));
#1565=CARTESIAN_POINT('',(7.75,-9.,-21.15));
#1566=CARTESIAN_POINT('',(-21.15,-9.,-15.5));
#1567=CARTESIAN_POINT('',(-16.9125,-9.,-19.7375));
#1568=CARTESIAN_POINT('',(-21.15,-9.,-7.75));
#1569=CARTESIAN_POINT('Origin',(-4.44089209850063E-15,-9.,4.44089209850063E-15));
#1570=CARTESIAN_POINT('',(21.15,-9.,-15.5));
#1571=CARTESIAN_POINT('',(21.15,-9.,7.75000000000001));
#1572=CARTESIAN_POINT('',(15.5,-9.,-21.15));
#1573=CARTESIAN_POINT('',(19.7375,-9.,-16.9125));
#1574=CARTESIAN_POINT('',(7.75,-9.,-21.15));
#1575=CARTESIAN_POINT('Origin',(9.,-9.00000017881393,21.15));
#1576=CARTESIAN_POINT('',(9.,-14.0000001788139,22.15));
#1577=CARTESIAN_POINT('',(9.,-10.5000001788139,22.15));
#1578=CARTESIAN_POINT('',(9.,-14.0000001788139,26.15));
#1579=CARTESIAN_POINT('',(9.,-14.0000001788139,21.15));
#1580=CARTESIAN_POINT('',(9.,-10.0000001788139,26.15));
#1581=CARTESIAN_POINT('Origin',(9.,-14.0000001788139,21.15));
#1582=CARTESIAN_POINT('',(-9.,-14.0000001788139,22.15));
#1583=CARTESIAN_POINT('',(4.5,-14.0000001788139,22.15));
#1584=CARTESIAN_POINT('',(-9.,-14.0000001788139,26.15));
#1585=CARTESIAN_POINT('',(-9.,-14.0000001788139,21.15));
#1586=CARTESIAN_POINT('',(-9.,-14.0000001788139,26.15));
#1587=CARTESIAN_POINT('Origin',(-9.,-14.0000001788139,21.15));
#1588=CARTESIAN_POINT('',(-9.,-13.0000001788139,22.15));
#1589=CARTESIAN_POINT('',(-9.,-10.0000001788139,26.15));
#1590=CARTESIAN_POINT('Origin',(-2.22044604925031E-15,-12.0000001788139,
26.15));
#1591=CARTESIAN_POINT('',(-10.,-15.0000001788139,26.15));
#1592=CARTESIAN_POINT('',(-10.,-9.00000017881393,26.15));
#1593=CARTESIAN_POINT('',(10.,-15.0000001788139,26.15));
#1594=CARTESIAN_POINT('',(-10.,-15.0000001788139,26.15));
#1595=CARTESIAN_POINT('',(10.,-15.0000001788139,26.15));
#1596=CARTESIAN_POINT('Origin',(-10.,-15.0000001788139,21.15));
#1597=CARTESIAN_POINT('',(10.,-15.0000001788139,21.15));
#1598=CARTESIAN_POINT('',(-10.,-15.0000001788139,21.15));
#1599=CARTESIAN_POINT('',(-12.75,-15.0000001788139,21.15));
#1600=CARTESIAN_POINT('',(10.,-15.0000001788139,21.15));
#1601=CARTESIAN_POINT('',(-10.,-15.0000001788139,21.15));
#1602=CARTESIAN_POINT('Origin',(-10.,-9.00000017881393,21.15));
#1603=CARTESIAN_POINT('',(-10.,-4.50000008940697,21.15));
#1604=CARTESIAN_POINT('Origin',(10.,-15.0000001788139,21.15));
#1605=CARTESIAN_POINT('',(10.,-7.50000008940697,21.15));
#1606=CARTESIAN_POINT('Origin',(-2.22044604925031E-15,-12.0000001788139,
22.15));
#1607=CARTESIAN_POINT('',(-6.,-12.0000001788139,22.15));
#1608=CARTESIAN_POINT('Origin',(-5.5,-12.0000001788139,22.15));
#1609=CARTESIAN_POINT('',(-0.500000000000002,-12.0000001788139,22.15));
#1610=CARTESIAN_POINT('Origin',(-2.22044604925031E-15,-12.0000001788139,
22.15));
#1611=CARTESIAN_POINT('',(5.,-12.0000001788139,22.15));
#1612=CARTESIAN_POINT('Origin',(5.5,-12.0000001788139,22.15));
#1613=CARTESIAN_POINT('',(2.25,-12.0000001788139,22.15));
#1614=CARTESIAN_POINT('Origin',(2.75,-12.0000001788139,22.15));
#1615=CARTESIAN_POINT('',(-3.25,-12.0000001788139,22.15));
#1616=CARTESIAN_POINT('Origin',(-2.75,-12.0000001788139,22.15));
#1617=CARTESIAN_POINT('Origin',(5.5,-12.0000001788139,21.15));
#1618=CARTESIAN_POINT('',(5.,-12.0000001788139,26.65));
#1619=CARTESIAN_POINT('Origin',(5.5,-12.0000001788139,26.65));
#1620=CARTESIAN_POINT('',(5.,-12.0000001788139,21.15));
#1621=CARTESIAN_POINT('Origin',(5.5,-12.0000001788139,26.65));
#1622=CARTESIAN_POINT('Origin',(-5.5,-12.0000001788139,21.15));
#1623=CARTESIAN_POINT('',(-6.,-12.0000001788139,26.65));
#1624=CARTESIAN_POINT('Origin',(-5.5,-12.0000001788139,26.65));
#1625=CARTESIAN_POINT('',(-6.,-12.0000001788139,21.15));
#1626=CARTESIAN_POINT('Origin',(-5.5,-12.0000001788139,26.65));
#1627=CARTESIAN_POINT('Origin',(-2.75,-12.0000001788139,21.15));
#1628=CARTESIAN_POINT('',(-3.25,-12.0000001788139,26.65));
#1629=CARTESIAN_POINT('Origin',(-2.75,-12.0000001788139,26.65));
#1630=CARTESIAN_POINT('',(-3.25,-12.0000001788139,21.15));
#1631=CARTESIAN_POINT('Origin',(-2.75,-12.0000001788139,26.65));
#1632=CARTESIAN_POINT('Origin',(-2.22044604925031E-15,-12.0000001788139,
21.15));
#1633=CARTESIAN_POINT('',(-0.500000000000002,-12.0000001788139,26.65));
#1634=CARTESIAN_POINT('Origin',(-2.22044604925031E-15,-12.0000001788139,
26.65));
#1635=CARTESIAN_POINT('',(-0.500000000000002,-12.0000001788139,21.15));
#1636=CARTESIAN_POINT('Origin',(-2.22044604925031E-15,-12.0000001788139,
26.65));
#1637=CARTESIAN_POINT('Origin',(2.75,-12.0000001788139,21.15));
#1638=CARTESIAN_POINT('',(2.25,-12.0000001788139,26.65));
#1639=CARTESIAN_POINT('Origin',(2.75,-12.0000001788139,26.65));
#1640=CARTESIAN_POINT('',(2.25,-12.0000001788139,21.15));
#1641=CARTESIAN_POINT('Origin',(2.75,-12.0000001788139,26.65));
#1642=CARTESIAN_POINT('Origin',(21.15,0.,-15.5));
#1643=CARTESIAN_POINT('',(21.15,-20.,-15.5));
#1644=CARTESIAN_POINT('',(21.15,0.,-15.5));
#1645=CARTESIAN_POINT('',(15.5,-20.,-21.15));
#1646=CARTESIAN_POINT('',(15.5,-20.,-21.15));
#1647=CARTESIAN_POINT('',(15.5,0.,-21.15));
#1648=CARTESIAN_POINT('Origin',(-15.5,0.,-21.15));
#1649=CARTESIAN_POINT('',(-15.5,-20.,-21.15));
#1650=CARTESIAN_POINT('',(-15.5,0.,-21.15));
#1651=CARTESIAN_POINT('',(-21.15,-20.,-15.5));
#1652=CARTESIAN_POINT('',(-21.15,-20.,-15.5));
#1653=CARTESIAN_POINT('',(-21.15,0.,-15.5));
#1654=CARTESIAN_POINT('Origin',(15.5,0.,21.15));
#1655=CARTESIAN_POINT('',(15.5,-20.,21.15));
#1656=CARTESIAN_POINT('',(15.5,0.,21.15));
#1657=CARTESIAN_POINT('',(21.15,-20.,15.5));
#1658=CARTESIAN_POINT('',(21.15,-20.,15.5));
#1659=CARTESIAN_POINT('',(21.15,0.,15.5));
#1660=CARTESIAN_POINT('Origin',(-21.15,0.,15.5));
#1661=CARTESIAN_POINT('',(-21.15,-20.,15.5));
#1662=CARTESIAN_POINT('',(-21.15,0.,15.5));
#1663=CARTESIAN_POINT('',(-15.5,-20.,21.15));
#1664=CARTESIAN_POINT('',(-15.5,-20.,21.15));
#1665=CARTESIAN_POINT('',(-15.5,0.,21.15));
#1666=CARTESIAN_POINT('Origin',(-4.44089209850063E-15,-20.,4.44089209850063E-15));
#1667=CARTESIAN_POINT('',(-21.15,-20.,21.15));
#1668=CARTESIAN_POINT('',(-21.15,-20.,-21.15));
#1669=CARTESIAN_POINT('',(21.15,-20.,-21.15));
#1670=CARTESIAN_POINT('',(21.15,-20.,21.15));
#1671=CARTESIAN_POINT('Origin',(-4.44089209850063E-15,9.,4.44089209850063E-15));
#1672=CARTESIAN_POINT('',(21.15,9.,15.5));
#1673=CARTESIAN_POINT('',(21.15,9.,7.75000000000001));
#1674=CARTESIAN_POINT('',(15.5,9.,21.15));
#1675=CARTESIAN_POINT('',(16.9125,9.,19.7375));
#1676=CARTESIAN_POINT('',(-7.75,9.,21.15));
#1677=CARTESIAN_POINT('Origin',(-4.44089209850063E-15,9.,4.44089209850063E-15));
#1678=CARTESIAN_POINT('',(15.5,9.,-21.15));
#1679=CARTESIAN_POINT('',(7.75,9.,-21.15));
#1680=CARTESIAN_POINT('',(21.15,9.,-15.5));
#1681=CARTESIAN_POINT('',(19.7375,9.,-16.9125));
#1682=CARTESIAN_POINT('',(21.15,9.,7.75000000000001));
#1683=CARTESIAN_POINT('Origin',(-4.44089209850063E-15,9.,4.44089209850063E-15));
#1684=CARTESIAN_POINT('',(-21.15,9.,-15.5));
#1685=CARTESIAN_POINT('',(-21.15,9.,-7.75));
#1686=CARTESIAN_POINT('',(-15.5,9.,-21.15));
#1687=CARTESIAN_POINT('',(-16.9125,9.,-19.7375));
#1688=CARTESIAN_POINT('',(7.75,9.,-21.15));
#1689=CARTESIAN_POINT('Origin',(-15.5,9.48926847382657,15.5));
#1690=CARTESIAN_POINT('',(-15.5,10.,13.8));
#1691=CARTESIAN_POINT('Origin',(-15.5,10.,15.5));
#1692=CARTESIAN_POINT('',(-15.5,8.97853694765315,15.5));
#1693=CARTESIAN_POINT('',(-15.5,9.48926847382657,14.65));
#1694=CARTESIAN_POINT('Origin',(-15.5,15.,15.5));
#1695=CARTESIAN_POINT('',(-15.5,20.,13.8));
#1696=CARTESIAN_POINT('Origin',(-15.5,20.,15.5));
#1697=CARTESIAN_POINT('',(-15.5,15.,13.8));
#1698=CARTESIAN_POINT('Origin',(15.5,9.48926847382657,-15.5));
#1699=CARTESIAN_POINT('',(15.5,10.,-17.2));
#1700=CARTESIAN_POINT('Origin',(15.5,10.,-15.5));
#1701=CARTESIAN_POINT('',(15.5,8.97853694765315,-15.5));
#1702=CARTESIAN_POINT('',(15.5,9.48926847382657,-16.35));
#1703=CARTESIAN_POINT('Origin',(15.5,15.,-15.5));
#1704=CARTESIAN_POINT('',(15.5,20.,-17.2));
#1705=CARTESIAN_POINT('Origin',(15.5,20.,-15.5));
#1706=CARTESIAN_POINT('',(15.5,15.,-17.2));
#1707=CARTESIAN_POINT('Origin',(15.5,9.48926847382657,15.5));
#1708=CARTESIAN_POINT('',(15.5,10.,13.8));
#1709=CARTESIAN_POINT('Origin',(15.5,10.,15.5));
#1710=CARTESIAN_POINT('',(15.5,8.97853694765315,15.5));
#1711=CARTESIAN_POINT('',(15.5,9.48926847382657,14.65));
#1712=CARTESIAN_POINT('Origin',(15.5,15.,15.5));
#1713=CARTESIAN_POINT('',(15.5,20.,13.8));
#1714=CARTESIAN_POINT('Origin',(15.5,20.,15.5));
#1715=CARTESIAN_POINT('',(15.5,15.,13.8));
#1716=CARTESIAN_POINT('Origin',(-15.5,9.48926847382657,-15.5));
#1717=CARTESIAN_POINT('',(-15.5,10.,-17.2));
#1718=CARTESIAN_POINT('Origin',(-15.5,10.,-15.5));
#1719=CARTESIAN_POINT('',(-15.5,8.97853694765315,-15.5));
#1720=CARTESIAN_POINT('',(-15.5,9.48926847382657,-16.35));
#1721=CARTESIAN_POINT('Origin',(-15.5,15.,-15.5));
#1722=CARTESIAN_POINT('',(-15.5,20.,-17.2));
#1723=CARTESIAN_POINT('Origin',(-15.5,20.,-15.5));
#1724=CARTESIAN_POINT('',(-15.5,15.,-17.2));
#1725=CARTESIAN_POINT('Origin',(0.,20.,0.));
#1726=CARTESIAN_POINT('',(11.,22.,-1.34711147906209E-15));
#1727=CARTESIAN_POINT('Origin',(0.,22.,0.));
#1728=CARTESIAN_POINT('',(11.,20.,-1.34711147906209E-15));
#1729=CARTESIAN_POINT('',(11.,20.,-1.34711147906209E-15));
#1730=CARTESIAN_POINT('Origin',(0.,20.,0.));
#1731=CARTESIAN_POINT('Origin',(0.,22.,0.));
#1732=CARTESIAN_POINT('',(-2.4894981252574E-16,22.,2.5));
#1733=CARTESIAN_POINT('Origin',(0.,22.,0.));
#1734=CARTESIAN_POINT('Origin',(-4.44089209850063E-15,20.,4.44089209850063E-15));
#1735=CARTESIAN_POINT('',(-21.15,20.,-15.5));
#1736=CARTESIAN_POINT('',(-21.15,20.,15.5));
#1737=CARTESIAN_POINT('',(-21.15,20.,21.15));
#1738=CARTESIAN_POINT('',(-15.5,20.,21.15));
#1739=CARTESIAN_POINT('',(-15.5,20.,21.15));
#1740=CARTESIAN_POINT('',(15.5,20.,21.15));
#1741=CARTESIAN_POINT('',(21.15,20.,21.15));
#1742=CARTESIAN_POINT('',(21.15,20.,15.5));
#1743=CARTESIAN_POINT('',(21.15,20.,15.5));
#1744=CARTESIAN_POINT('',(21.15,20.,-15.5));
#1745=CARTESIAN_POINT('',(21.15,20.,-21.15));
#1746=CARTESIAN_POINT('',(15.5,20.,-21.15));
#1747=CARTESIAN_POINT('',(15.5,20.,-21.15));
#1748=CARTESIAN_POINT('',(-15.5,20.,-21.15));
#1749=CARTESIAN_POINT('',(-21.15,20.,-21.15));
#1750=CARTESIAN_POINT('',(-21.15,20.,-15.5));
#1751=CARTESIAN_POINT('Origin',(-4.44089209850063E-15,9.,4.44089209850063E-15));
#1752=CARTESIAN_POINT('',(-15.5,9.,21.15));
#1753=CARTESIAN_POINT('',(-7.75,9.,21.15));
#1754=CARTESIAN_POINT('',(-21.15,9.,15.5));
#1755=CARTESIAN_POINT('',(-19.7375,9.,16.9125));
#1756=CARTESIAN_POINT('',(-21.15,9.,-7.75));
#1757=CARTESIAN_POINT('Origin',(21.15,0.,-15.5));
#1758=CARTESIAN_POINT('',(15.5,0.,-21.15));
#1759=CARTESIAN_POINT('',(21.15,0.,-15.5));
#1760=CARTESIAN_POINT('Origin',(15.5,0.,-21.15));
#1761=CARTESIAN_POINT('',(-15.5,0.,-21.15));
#1762=CARTESIAN_POINT('Origin',(-15.5,0.,-21.15));
#1763=CARTESIAN_POINT('',(-21.15,0.,-15.5));
#1764=CARTESIAN_POINT('Origin',(-21.15,0.,-15.5));
#1765=CARTESIAN_POINT('',(-21.15,0.,15.5));
#1766=CARTESIAN_POINT('Origin',(21.15,0.,15.5));
#1767=CARTESIAN_POINT('',(21.15,0.,15.5));
#1768=CARTESIAN_POINT('Origin',(15.5,0.,21.15));
#1769=CARTESIAN_POINT('',(15.5,0.,21.15));
#1770=CARTESIAN_POINT('Origin',(-15.5,0.,21.15));
#1771=CARTESIAN_POINT('',(-15.5,0.,21.15));
#1772=CARTESIAN_POINT('Origin',(-21.15,0.,15.5));
#1773=CARTESIAN_POINT('Origin',(0.,43.75,0.));
#1774=CARTESIAN_POINT('',(0.499999999999999,44.,1.93649167310371));
#1775=CARTESIAN_POINT('',(0.500000000000001,44.,-1.93649167310371));
#1776=CARTESIAN_POINT('Origin',(0.,44.,0.));
#1777=CARTESIAN_POINT('',(1.,43.5,-2.29128784747792));
#1778=CARTESIAN_POINT('Ctrl Pts',(0.5,44.,-1.9364916731037));
#1779=CARTESIAN_POINT('Ctrl Pts',(0.662731423668113,43.8372685763319,-2.06254289185795));
#1780=CARTESIAN_POINT('Ctrl Pts',(0.831659269203837,43.6683407307962,-2.18108297013255));
#1781=CARTESIAN_POINT('Ctrl Pts',(0.999999999999996,43.5,-2.29128784747792));
#1782=CARTESIAN_POINT('',(-2.4894981252574E-16,43.5,2.5));
#1783=CARTESIAN_POINT('Origin',(0.,43.5,0.));
#1784=CARTESIAN_POINT('',(0.999999999999999,43.5,2.29128784747792));
#1785=CARTESIAN_POINT('Origin',(0.,43.5,0.));
#1786=CARTESIAN_POINT('Ctrl Pts',(0.500000000000002,44.,1.93649167310371));
#1787=CARTESIAN_POINT('Ctrl Pts',(0.662731423668108,43.8372685763319,2.06254289185795));
#1788=CARTESIAN_POINT('Ctrl Pts',(0.831659269203815,43.6683407307962,2.18108297013254));
#1789=CARTESIAN_POINT('Ctrl Pts',(0.999999999999992,43.5,2.29128784747792));
#1790=CARTESIAN_POINT('Origin',(0.75,43.75,1.14564392373896));
#1791=CARTESIAN_POINT('',(1.,43.5,1.14564392373896));
#1792=CARTESIAN_POINT('',(0.5,44.,1.14564392373896));
#1793=CARTESIAN_POINT('Origin',(0.999999999999999,44.,2.29128784747792));
#1794=CARTESIAN_POINT('',(0.999999999999999,32.5,2.29128784747792));
#1795=CARTESIAN_POINT('',(0.999999999999999,20.,2.29128784747792));
#1796=CARTESIAN_POINT('',(1.,32.5,-2.29128784747792));
#1797=CARTESIAN_POINT('',(1.,32.5,1.14564392373896));
#1798=CARTESIAN_POINT('',(1.,20.,-2.29128784747792));
#1799=CARTESIAN_POINT('Origin',(0.,44.,0.));
#1800=CARTESIAN_POINT('Origin',(1.25,32.25,1.14564392373896));
#1801=CARTESIAN_POINT('',(1.5,32.,2.));
#1802=CARTESIAN_POINT('Origin',(0.,33.5,0.));
#1803=CARTESIAN_POINT('',(1.5,32.,-2.));
#1804=CARTESIAN_POINT('',(1.5,32.,1.14564392373896));
#1805=CARTESIAN_POINT('Origin',(0.,33.5,0.));
#1806=CARTESIAN_POINT('Origin',(1.75,32.,3.88578058618805E-16));
#1807=CARTESIAN_POINT('Origin',(0.,32.,0.));
#1808=CARTESIAN_POINT('Origin',(0.,20.,0.));
#1809=CARTESIAN_POINT('',(-2.4894981252574E-16,20.,2.5));
#1810=UNCERTAINTY_MEASURE_WITH_UNIT(LENGTH_MEASURE(0.01),#1814,
'DISTANCE_ACCURACY_VALUE',
'Maximum model space distance between geometric entities at asserted c
onnectivities');
#1811=UNCERTAINTY_MEASURE_WITH_UNIT(LENGTH_MEASURE(0.01),#1814,
'DISTANCE_ACCURACY_VALUE',
'Maximum model space distance between geometric entities at asserted c
onnectivities');
#1812=(
GEOMETRIC_REPRESENTATION_CONTEXT(3)
GLOBAL_UNCERTAINTY_ASSIGNED_CONTEXT((#1810))
GLOBAL_UNIT_ASSIGNED_CONTEXT((#1814,#1816,#1817))
REPRESENTATION_CONTEXT('','3D')
);
#1813=(
GEOMETRIC_REPRESENTATION_CONTEXT(3)
GLOBAL_UNCERTAINTY_ASSIGNED_CONTEXT((#1811))
GLOBAL_UNIT_ASSIGNED_CONTEXT((#1814,#1816,#1817))
REPRESENTATION_CONTEXT('','3D')
);
#1814=(
LENGTH_UNIT()
NAMED_UNIT(*)
SI_UNIT(.MILLI.,.METRE.)
);
#1815=(
LENGTH_UNIT()
NAMED_UNIT(*)
SI_UNIT($,.METRE.)
);
#1816=(
NAMED_UNIT(*)
PLANE_ANGLE_UNIT()
SI_UNIT($,.RADIAN.)
);
#1817=(
NAMED_UNIT(*)
SI_UNIT($,.STERADIAN.)
SOLID_ANGLE_UNIT()
);
#1818=SHAPE_DEFINITION_REPRESENTATION(#1819,#1820);
#1819=PRODUCT_DEFINITION_SHAPE('',$,#1822);
#1820=SHAPE_REPRESENTATION('',(#1094),#1812);
#1821=PRODUCT_DEFINITION_CONTEXT('part definition',#1826,'design');
#1822=PRODUCT_DEFINITION('NEMA 17 Motor','NEMA 17 Motor v1',#1823,#1821);
#1823=PRODUCT_DEFINITION_FORMATION('',$,#1828);
#1824=PRODUCT_RELATED_PRODUCT_CATEGORY('NEMA 17 Motor v1',
'NEMA 17 Motor v1',(#1828));
#1825=APPLICATION_PROTOCOL_DEFINITION('international standard',
'automotive_design',2009,#1826);
#1826=APPLICATION_CONTEXT(
'Core Data for Automotive Mechanical Design Process');
#1827=PRODUCT_CONTEXT('part definition',#1826,'mechanical');
#1828=PRODUCT('NEMA 17 Motor','NEMA 17 Motor v1',$,(#1827));
#1829=PRESENTATION_STYLE_ASSIGNMENT((#1831));
#1830=PRESENTATION_STYLE_ASSIGNMENT((#1832));
#1831=SURFACE_STYLE_USAGE(.BOTH.,#1833);
#1832=SURFACE_STYLE_USAGE(.BOTH.,#1834);
#1833=SURFACE_SIDE_STYLE('',(#1835));
#1834=SURFACE_SIDE_STYLE('',(#1836));
#1835=SURFACE_STYLE_FILL_AREA(#1837);
#1836=SURFACE_STYLE_FILL_AREA(#1838);
#1837=FILL_AREA_STYLE('Steel - Satin',(#1839));
#1838=FILL_AREA_STYLE('Silver - Polished',(#1840));
#1839=FILL_AREA_STYLE_COLOUR('Steel - Satin',#1841);
#1840=FILL_AREA_STYLE_COLOUR('Silver - Polished',#1842);
#1841=COLOUR_RGB('Steel - Satin',0.627450980392157,0.627450980392157,0.627450980392157);
#1842=COLOUR_RGB('Silver - Polished',0.984313725490196,0.980392156862745,
0.96078431372549);
ENDSEC;
END-ISO-10303-21;
